<svg width="1012" height="873" viewBox="0 0 1012 873" fill="none" xmlns="http://www.w3.org/2000/svg">
<path opacity="0.5" d="M894.66 565.399C860.52 526.844 802.226 502.261 762.888 465.961C702.847 410.568 691.996 333.271 617.322 289.908C572.112 263.638 518.303 259.475 470.385 238.029C403.075 207.926 360.968 151.183 306.627 106.492C263.869 71.7975 212.938 43.6982 159.103 25.1006C105.267 6.50301 50.4814 -1.91794 0.410329 0.708694C62.3126 52.7815 176.087 54.2694 221.225 113.27C237.543 134.572 238.702 156.855 245.102 178.745C251.502 200.636 267.544 226.566 295.974 237.596C324.404 248.626 354.139 238.982 383.794 249.353C409.137 258.231 428.403 279.696 453.769 288.296C501.626 304.501 540.091 266.918 585.783 288.873C609.325 300.18 620.944 321.562 629.797 340.503L688.234 464.005C706.191 502.037 731.386 546.503 780.361 566.364C806.539 576.943 834.875 578.058 860.084 590.291C906.28 612.547 919.85 659.313 910.892 691.324C901.935 723.335 878.523 750.358 880.809 785.749C885.765 862.722 1045.99 915.644 1004.59 825.14C986.529 785.743 954.532 749.086 942.312 708.88C928.076 661.339 936.79 612.864 894.66 565.399Z" fill="#FFF9F4"/>
</svg>
