<svg width="776" height="829" viewBox="0 0 776 829" fill="none" xmlns="http://www.w3.org/2000/svg">
<path d="M716.364 473.284C691.832 433.017 643.108 413.969 613.493 377.362C568.293 321.504 571.275 230.327 510.827 191.62C474.232 168.164 426.186 172.91 386.339 155.759C330.363 131.694 301.63 70.9545 259.818 26.9592C226.84 -7.09266 185.368 -31.7142 139.69 -44.3591C94.0118 -57.004 45.7861 -57.2133 -3.81608e-05 -44.9655C47.4368 6.55444 150.239 -12.291 181.344 50.6176C192.593 73.327 189.95 99.9683 192.119 125.186C194.288 150.403 204.52 178.739 228.442 186.874C252.364 195.009 280.894 177.994 306.035 185.112C327.517 191.213 341.409 213.583 362.959 219.345C403.619 230.192 444.686 177.926 482.432 196.093C501.881 205.448 508.861 229.107 513.741 250.325L546.201 388.548C556.163 431.119 571.613 480.131 612.68 495.18C634.637 503.179 660.117 499.383 680.921 509.552C719.074 527.99 723.615 581.883 710.197 622.082C696.779 662.281 671.095 699.091 667.3 741.323C659.033 833.178 795.38 867.886 772.881 766.338C763.055 722.139 740.15 683.77 735.745 637.538C730.73 582.832 746.655 522.838 716.364 473.284Z" fill="white"/>
</svg>
