<svg width="20" height="21" viewBox="0 0 20 21" fill="none" xmlns="http://www.w3.org/2000/svg">
<path d="M2.5 10.5H6.66667M2.5 10.5C2.5 14.6421 5.85786 18 10 18M2.5 10.5C2.5 6.35786 5.85786 3 10 3M6.66667 10.5H13.3333M6.66667 10.5C6.66667 14.6421 8.15905 18 10 18M6.66667 10.5C6.66667 6.35786 8.15905 3 10 3M13.3333 10.5H17.5M13.3333 10.5C13.3333 6.35786 11.8409 3 10 3M13.3333 10.5C13.3333 14.6421 11.8409 18 10 18M17.5 10.5C17.5 6.35786 14.1421 3 10 3M17.5 10.5C17.5 14.6421 14.1421 18 10 18" stroke="#0F3E3A" stroke-width="1.5" stroke-linecap="round" stroke-linejoin="round"/>
</svg>
