<svg width="20" height="20" viewBox="0 0 20 20" fill="none" xmlns="http://www.w3.org/2000/svg">
<path d="M9.99967 12.5007L12.4997 10.0007M12.4997 10.0007L9.99967 7.50065M12.4997 10.0007H3.33301M3.33301 6.04067V6.00081C3.33301 5.06739 3.33301 4.60033 3.51466 4.24382C3.67445 3.93021 3.92924 3.67543 4.24284 3.51564C4.59936 3.33398 5.06642 3.33398 5.99984 3.33398H13.9998C14.9333 3.33398 15.3993 3.33398 15.7558 3.51564C16.0694 3.67543 16.3251 3.93021 16.4849 4.24382C16.6663 4.59999 16.6663 5.06648 16.6663 5.99808V14.0036C16.6663 14.9352 16.6663 15.401 16.4849 15.7572C16.3251 16.0708 16.0694 16.3261 15.7558 16.4858C15.3997 16.6673 14.9338 16.6673 14.0022 16.6673H5.9971C5.0655 16.6673 4.59901 16.6673 4.24284 16.4858C3.92924 16.3261 3.67445 16.0706 3.51466 15.757C3.33301 15.4005 3.33301 14.9341 3.33301 14.0007V13.959" stroke="#5E706E" stroke-width="1.5" stroke-linecap="round" stroke-linejoin="round"/>
</svg>
