<svg width="20" height="21" viewBox="0 0 20 21" fill="none" xmlns="http://www.w3.org/2000/svg">
<path d="M10.0003 18L9.91695 17.8749C9.33808 17.0066 9.04864 16.5725 8.66624 16.2582C8.32771 15.9799 7.93763 15.7712 7.51833 15.6438C7.0447 15.5 6.52292 15.5 5.47935 15.5H4.33366C3.40024 15.5 2.93353 15.5 2.57701 15.3183C2.2634 15.1586 2.00844 14.9036 1.84865 14.59C1.66699 14.2335 1.66699 13.7668 1.66699 12.8333V5.66667C1.66699 4.73325 1.66699 4.26654 1.84865 3.91002C2.00844 3.59641 2.2634 3.34144 2.57701 3.18166C2.93353 3 3.40024 3 4.33366 3H4.66699C6.53383 3 7.46725 3 8.18029 3.36331C8.8075 3.68289 9.31744 4.19282 9.63701 4.82003C10.0003 5.53307 10.0003 6.46649 10.0003 8.33333M10.0003 18V8.33333M10.0003 18L10.0837 17.8749C10.6626 17.0066 10.952 16.5725 11.3344 16.2582C11.6729 15.9799 12.063 15.7712 12.4823 15.6438C12.956 15.5 13.4777 15.5 14.5213 15.5H15.667C16.6004 15.5 17.0671 15.5 17.4236 15.3183C17.7372 15.1586 17.9922 14.9036 18.152 14.59C18.3337 14.2335 18.3337 13.7668 18.3337 12.8333V5.66667C18.3337 4.73325 18.3337 4.26654 18.152 3.91002C17.9922 3.59641 17.7372 3.34144 17.4236 3.18166C17.0671 3 16.6004 3 15.667 3H15.3337C13.4668 3 12.5334 3 11.8204 3.36331C11.1932 3.68289 10.6832 4.19282 10.3636 4.82003C10.0003 5.53307 10.0003 6.46649 10.0003 8.33333" stroke="#0F3E3A" stroke-width="1.5" stroke-linecap="round" stroke-linejoin="round"/>
</svg>
