<svg width="95" height="80" viewBox="0 0 95 80" fill="none" xmlns="http://www.w3.org/2000/svg">
<g clip-path="url(#clip0_1715_288)">
<path d="M28.7683 0.000977123H40.4248C40.8558 0.000977123 41.3813 2.13434 42.0013 6.40107C42.1912 6.90615 44.1033 16.7895 47.7375 36.0511H47.8929C47.8929 35.6509 50.0983 23.7301 54.5092 0.288589L54.9487 0.00130267H66.166C66.3035 0.00130267 66.4499 0.149397 66.6052 0.445586V54.5215C66.6052 54.6782 66.4588 54.8262 66.166 54.9654H57.9744C57.8191 54.9654 57.6726 54.8174 57.5349 54.5215V26.3078H57.3799C53.9336 43.6362 51.9693 53.1364 51.487 54.8084L51.2015 54.9654H44.5861C44.1382 54.9654 43.6127 53.1716 43.0097 49.5838C41.0797 41.7991 39.2536 33.9011 37.5312 25.8899H37.4023V54.5208C37.4023 54.6778 37.2558 54.8259 36.9628 54.9651H28.7683C28.6134 54.9651 28.467 54.817 28.3291 54.5208V0.443958C28.3291 0.287177 28.4755 0.139191 28.7683 0V0.000977123ZM29.1818 0.575874C31.8697 2.85744 33.7909 5.04314 34.9454 7.13296C36.1515 9.32745 36.7719 10.7817 36.8065 11.4957V11.626C36.8065 11.8698 36.4274 12.0701 35.6692 12.2269C35.6003 12.2269 34.7818 10.7727 33.2139 7.86421C31.9732 5.77438 30.5343 3.98064 28.8972 2.48297V2.90087C29.5695 3.68456 30.6723 5.13879 32.2056 7.26358C32.9809 8.11697 33.9459 9.86717 35.1004 12.5142L34.9454 12.8018V12.9321C35.1349 12.9321 35.2297 12.9843 35.2297 13.0888C37.4696 11.8347 38.9601 11.2077 39.7013 11.2077C39.7013 11.0859 40.5628 10.8422 42.2859 10.4765C42.1804 10.2944 42.1268 10.0865 42.1308 9.87553L41.1228 10.0322H40.709C40.709 9.54471 41.0881 8.96134 41.8463 8.28211C41.5189 6.00054 40.847 4.25891 39.8306 3.05722C38.5383 1.40299 37.8232 0.575766 37.6853 0.575549H36.9615C39.9424 3.65904 41.4328 6.08848 41.4328 7.86388C41.2264 8.29948 41.0283 8.53465 40.8386 8.56939H40.7097C40.4682 8.56939 40.0805 7.84662 39.5466 6.40107C39.0297 5.23434 37.3497 3.2925 34.5065 0.575549H33.8088V0.732872C34.7047 1.13329 36.1871 2.68329 38.256 5.38286C39.4099 7.10723 39.9869 8.56157 39.9869 9.7459C39.8494 10.1289 39.7029 10.3205 39.5476 10.3205C38.4964 7.83001 36.7734 5.21772 34.3786 2.48362C34.3786 2.32662 33.7496 1.69093 32.4917 0.576526H31.9233C36.5238 5.50577 38.824 8.90184 38.8238 10.7648C38.5138 11.0084 38.083 11.1999 37.5316 11.3393C35.8085 7.31645 34.3261 4.84347 33.0844 3.92038C31.3959 1.69114 30.2416 0.576526 29.6214 0.576526H29.1821L29.1818 0.575874ZM39.7013 0.575874C39.7013 0.802576 39.9425 0.950671 40.4248 1.02016V0.86316C40.4248 0.671637 40.3215 0.575766 40.1148 0.575549L39.7013 0.575874ZM54.3558 4.0777V4.52166C57.9567 2.95429 60.9806 2.1706 63.4274 2.1706H64.5907L66.0122 2.32728V1.88332L65.0042 1.75303H63.2982C60.9205 1.75303 57.9397 2.52803 54.3558 4.07803V4.0777ZM53.942 6.84633C57.0264 5.19167 61.0067 4.36444 65.8827 4.36466H66.0116V3.92038H64.4351C61.1783 3.99008 57.6806 4.76508 53.942 6.24537V6.84633ZM28.8976 5.95809V6.53299C31.689 10.2076 33.0846 12.5411 33.0844 13.5337C33.1703 13.5337 33.2133 13.6295 33.2133 13.821C33.1273 14.204 32.8431 14.3957 32.3606 14.3959C31.9298 14.3959 31.4473 13.3335 30.913 11.2087C30.293 10.0591 29.621 9.04028 28.8972 8.15214V9.01433C30.1721 10.8256 30.8958 12.332 31.0683 13.5337V14.2392H30.7838C30.1117 14.2392 29.6293 13.5164 29.3365 12.0709C29.147 12.0709 29.0523 11.9228 29.0523 11.6266H28.8972V12.8021C29.1903 13.6731 29.3367 14.152 29.3365 14.2389C29.147 14.3436 29.0006 14.3959 28.8972 14.3959V14.9705C29.0867 14.8836 29.2331 14.8402 29.3365 14.8402C35.7462 14.8402 40.7776 17.4526 44.4305 22.6773H44.5855V22.5471C44.396 21.7634 44.3013 21.1799 44.3013 20.7966H43.4225C43.4225 20.6572 43.1381 20.2218 42.5694 19.4905V19.3338C43.1899 19.1423 43.6207 19.0465 43.8617 19.0465V18.7589C43.8617 18.5674 43.767 18.4716 43.5775 18.4716H41.7167C41.1135 18.4716 40.5362 18.0798 39.9849 17.2961C39.9849 17.0177 40.9929 16.8784 43.009 16.8782H43.4225V16.2769H42.855C40.8733 16.2769 39.5294 16.4772 38.8232 16.8779C37.8409 16.3904 37.3153 15.9985 37.2464 15.7024V15.5721C37.5912 15.5721 38.5472 15.276 40.1145 14.6838C41.0965 14.597 41.8633 14.5535 42.4148 14.5535H43.009V14.2402C43.009 14.0485 42.9143 13.9526 42.7248 13.9526C40.7607 13.9526 38.7448 14.4925 36.6769 15.5724C36.177 15.5724 35.2639 15.2328 33.9377 14.5535C33.9377 14.4491 34.179 14.1095 34.6615 13.5347C34.6615 13.3432 34.5667 13.2474 34.377 13.2474C34.2002 13.3353 34.0055 13.38 33.8085 13.3777C32.9811 11.2006 31.3442 8.72758 28.8976 5.95874V5.95809ZM53.3735 9.45698C55.2517 8.35995 58.1722 7.53273 62.1351 6.97531C63.3752 6.59205 64.4263 6.40042 65.2884 6.40042H65.7277L66.0119 6.5307V6.11346H64.7197C62.1177 6.11346 58.4735 6.98422 53.787 8.72574C53.5111 9.09163 53.3732 9.33538 53.3732 9.45698H53.3735ZM52.9343 11.9129H53.0632C56.3023 10.5542 58.4648 9.87499 59.5506 9.87521H60.4036C60.4036 11.0422 59.6369 11.6256 58.1033 11.6256C57.1555 11.8172 55.5272 12.357 53.2185 13.2451C53.0288 13.1405 52.8823 13.0882 52.779 13.0884L52.6501 13.3757C55.9586 15.7096 58.638 17.9911 60.6882 20.2201C60.6882 20.3769 61.1706 20.76 62.1354 21.3696C63.7205 23.0944 65.0128 24.2608 66.0122 24.8688V24.5815C66.0164 24.3738 65.9722 24.1679 65.8833 23.9806C65.9693 23.824 66.0122 23.6325 66.0122 23.406V23.1187L65.1592 23.5627C64.9014 23.5627 64.419 23.1273 63.7119 22.2565C64.6078 21.6644 65.3746 21.3683 66.0122 21.3683V20.795C64.3926 21.2478 63.531 21.5874 63.4277 21.8139C62.566 21.3259 62.1352 20.8382 62.1354 20.3507C63.9792 19.5844 65.2715 19.2013 66.0122 19.2013V18.7573C64.9438 18.7573 63.5051 19.1927 61.6959 20.0634C61.489 20.0634 60.9634 19.6803 60.1191 18.914C60.1191 18.2697 61.9452 17.634 65.5975 17.0069C65.787 17.1115 65.9248 17.1639 66.0109 17.1639V13.664C60.4111 13.664 57.0082 14.0995 55.8021 14.9705C54.6471 14.5338 54.0701 14.0983 54.0712 13.664C55.105 12.8456 56.9312 12.2622 59.5496 11.9139H59.6785C60.2816 12.5931 60.8588 12.9327 61.41 12.9327C61.6339 12.9327 61.9699 12.6454 62.4181 12.0706C62.849 11.7746 63.2798 11.6266 63.7103 11.6266C64.6926 11.7308 65.4593 11.7831 66.0106 11.7833V10.4771L65.0026 10.3205H64.1499C63.2536 10.3205 62.4868 10.9038 61.8496 12.0706L60.8416 12.3579L60.5573 11.9139V11.338C60.5573 10.3628 61.2293 9.64015 62.5731 9.17002C62.694 8.76939 63.1248 8.52553 63.8653 8.43845H64.8734C65.27 8.43853 65.6606 8.53719 66.0106 8.72574V8.15117C65.0973 7.95964 64.5288 7.86388 64.3049 7.86388C64.0291 7.86388 62.6333 8.3428 60.1178 9.30064C58.6534 9.40508 56.3016 10.1365 53.0622 11.495C52.9763 11.6865 52.9333 11.8258 52.9333 11.9129H52.9343ZM64.1509 10.8954H65.2881V11.2087H63.8663C63.8835 10.9985 63.9783 10.8941 64.1509 10.8954ZM65.1592 14.1106C65.5382 14.1974 65.7277 14.4413 65.7277 14.8421C65.59 14.8421 65.4436 14.9814 65.2884 15.26L64.5907 15.1297C63.7464 15.1297 61.5409 15.6174 57.9741 16.5929H57.6638C56.9058 16.1225 56.5268 15.8265 56.5268 15.7046V15.417C56.5268 14.7206 59.4043 14.2853 65.1592 14.1109V14.1106ZM64.5901 15.7024H64.719C65.3049 15.7545 65.5978 15.9025 65.5978 16.1463V16.2766C65.5978 16.5207 64.2539 16.8603 61.566 17.2955C61.4625 17.3999 60.8335 17.696 59.6792 18.1837C59.0418 17.9396 58.6627 17.6 58.5419 17.1648C60.8164 16.1896 62.8325 15.702 64.5901 15.702V15.7024ZM52.0542 16.2773V16.7215C54.9833 18.8982 56.9044 20.4047 57.8175 21.2409H57.9728V20.7953C56.2346 18.9987 54.2401 17.4752 52.0555 16.2756L52.0542 16.2773ZM28.8976 18.6003V19.0446H30.1902C31.3273 19.0446 33.4898 19.6802 36.6776 20.9513C38.7615 21.8571 40.5793 23.2069 42.1308 25.0007L45.5942 29.8074C45.887 30.5042 46.0335 30.896 46.0337 30.9829H46.1626V30.8262C46.1626 29.2589 44.4827 26.69 41.1228 23.1197C37.9862 20.6468 34.2987 19.0968 30.0606 18.4697C29.5265 18.5565 29.1388 18.6 28.8976 18.6V18.6003ZM51.642 18.9133C51.6438 19.1158 51.59 19.3147 51.4867 19.4882C53.1753 19.6971 55.1914 20.9597 57.5349 23.276V22.6751C57.363 22.6751 56.6393 22.0482 55.3638 20.7943C53.9164 19.8886 52.6758 19.2616 51.642 18.9133ZM28.8976 20.7973V21.3719H29.4921C32.5762 21.3719 34.9716 21.9553 36.6785 23.1223H36.8074V22.5467C34.5658 21.3804 31.9292 20.7973 28.8976 20.7973ZM51.2015 20.9517V21.5266C52.6491 22.223 54.5703 23.5291 56.9651 25.445H57.094V25.1574C55.4397 23.5551 53.4755 22.1531 51.2012 20.9517H51.2015ZM58.1024 20.9517V21.6572C62.186 25.4888 64.8223 27.7179 66.0113 28.3446V27.77C63.9091 26.098 61.2728 23.8252 58.1024 20.9517ZM28.8976 22.9633V23.5659L29.1818 23.4092C31.7837 23.4092 34.3253 24.0884 36.8065 25.4466V25.1593C35.2042 23.6966 32.5679 22.9652 28.8976 22.965V22.9633ZM37.4007 22.9633C37.4007 23.4858 37.9262 24.0257 38.9772 24.5831C42.165 27.2651 44.1294 29.6863 44.8704 31.8467C45.6457 32.8918 46.0334 33.7627 46.0334 34.4593C45.9299 34.7553 45.6369 34.9033 45.1546 34.9033H45.0257C44.8708 34.9033 44.6295 34.2764 44.3019 33.0226C42.8371 30.6702 40.9159 28.3882 38.5383 26.1766L38.2537 26.0196H38.0987V26.1766C38.0987 26.3155 38.9172 27.2384 40.554 28.9452C42.9491 31.6969 44.1466 33.7781 44.1466 35.1889C43.7502 35.4851 43.3711 35.6331 43.0093 35.6329C41.6825 32.7418 40.3816 30.7042 39.1068 29.5201H38.9779V29.6504C38.9779 29.9813 39.6499 31.0001 40.9939 32.7066C41.7519 34.3437 42.1308 35.2666 42.1308 35.4752V35.7625C41.9934 36.1632 41.6574 36.3635 41.1231 36.3635L40.1158 34.0137H39.9869L40.7103 37.227C43.4674 35.9729 45.4318 35.3459 46.6035 35.3459L46.4482 36.7827C46.5517 37.3749 46.6982 37.6709 46.8877 37.6709H47.172L47.4562 37.5143C47.4562 37.1833 47.3184 36.8002 47.0427 36.3648V35.9208C47.0427 35.8162 47.0857 35.7638 47.1716 35.7638C46.7237 33.291 45.0438 30.2868 42.1318 26.7515C40.0988 24.6616 38.5222 23.399 37.402 22.9637L37.4007 22.9633ZM50.7632 23.2763V23.6942C53.1583 25.1574 54.9844 26.3678 56.2416 27.3254C56.2586 27.5345 56.3534 27.6391 56.5259 27.6391L56.6809 27.3254V27.1951C53.8895 24.9659 51.9166 23.6597 50.7623 23.2767L50.7632 23.2763ZM58.1033 23.4066V24.1382C58.4133 24.2776 59.8089 25.4445 62.2901 27.6387C63.7034 28.7881 64.4701 29.3629 64.5904 29.3631V29.6504L63.867 29.807H63.5827C63.0658 29.807 61.2397 28.5009 58.1043 25.8886V26.0189C58.1043 26.5064 58.6815 27.0899 59.8358 27.7693C60.3871 28.3615 61.2056 29.0406 62.2914 29.8067V30.0943C61.6192 30.2859 61.085 30.3816 60.6888 30.3816C60.6716 30.1725 59.8618 29.5455 58.2593 28.5006C58.2593 28.3959 58.2076 28.3437 58.1043 28.3439V28.7879C59.1381 29.7635 59.7671 30.2512 59.9911 30.251V30.3813C59.5774 30.9735 58.9484 31.2695 58.1043 31.2695V32.1324C61.0162 30.8788 63.6525 30.2519 66.0132 30.2517V29.6507L61.9814 26.6215C61.4299 26.3079 60.1377 25.2369 58.1046 23.4083L58.1033 23.4066ZM50.4787 24.8701V25.3141C50.5133 25.4185 51.8055 26.3329 54.3555 28.0573C54.3555 28.1615 54.9327 28.6491 56.0873 29.5201H56.2423V29.0758C55.1565 27.9091 53.2353 26.5072 50.4787 24.8701ZM28.8976 25.732V26.1762H31.1979C33.093 26.1762 34.9621 26.8989 36.8052 28.3442V27.9263C34.9614 26.3766 32.9541 25.6016 30.7831 25.6013H29.621L28.8976 25.732ZM50.0394 27.1954V27.9267C53.0375 29.4419 54.8122 30.9397 55.3635 32.42H55.6738V31.5578C54.588 30.2692 52.7099 28.815 50.0394 27.1951V27.1954ZM29.4921 28.0566H28.8976V28.6576L29.1818 28.5006H29.9056C32.2663 28.5006 34.5666 29.2756 36.8065 30.8256V30.3816C34.5835 28.7445 32.4296 27.926 30.3448 27.926L29.4921 28.0566ZM49.626 29.5224C49.626 29.5745 49.5312 30.3495 49.3417 31.8474C49.4277 32.0389 49.4706 32.1869 49.4706 32.2913C49.2294 32.2913 49.0399 32.6745 48.9022 33.4408H49.0572C49.1431 33.162 49.4273 33.0227 49.9099 33.0229H50.4787C51.9434 33.0229 53.1926 34.0852 54.2262 36.2097V37.6729C53.9334 38.5958 53.787 39.1704 53.787 39.3969V39.8409C53.8211 40.0327 53.9159 40.1285 54.0712 40.1285C54.0712 39.8679 54.3642 38.2744 54.95 35.3479C54.6398 35.3479 54.0625 34.7644 53.2182 33.5975C52.7187 33.1276 51.7627 32.5964 50.3501 32.004C49.9537 31.5862 49.7555 31.0986 49.7555 30.5412V30.2536H49.9105C51.7025 30.8634 53.0464 31.978 53.9423 33.5975C54.1318 33.911 54.2265 34.1984 54.2265 34.4596H54.3555C55.0273 34.4596 55.3632 34.0765 55.3632 33.3102H55.2343L54.95 33.4405C52.555 31.0712 50.7803 29.7123 49.626 29.3637V29.5204V29.5224ZM28.8976 30.0969V30.5409H29.0526C30.052 30.5409 31.1031 30.7325 32.2059 31.1158V31.2725C31.8957 31.847 31.5596 32.1867 31.1979 32.2913C30.3361 31.9954 29.7675 31.8473 29.4918 31.847H28.8976V33.8848C28.8976 34.5816 29.044 34.9647 29.3368 35.0342C29.9916 33.9717 30.6637 33.4406 31.3529 33.4408C31.9213 32.1868 32.7828 31.5598 33.9374 31.5598C35.2297 31.5598 35.9964 32.1432 36.2377 33.3102C36.4615 33.3102 36.6081 33.5452 36.6772 34.0154H36.8061V33.0226C36.8061 31.6993 35.3674 30.9678 32.4898 30.8282C32.4898 30.5148 31.4908 30.2711 29.4928 30.0969H28.8976ZM29.4918 32.2913C29.9572 32.5699 30.2846 32.7092 30.4741 32.7092V32.8659C30.4397 33.11 30.1123 33.3538 29.4918 33.5975L29.0526 33.0226V32.5786C29.0526 32.3871 29.199 32.2913 29.4918 32.2913ZM58.1033 36.0531V36.654C58.9651 36.3581 59.8781 35.8703 60.8425 35.1909C62.2727 34.7034 63.9958 34.3116 66.0116 34.0154V33.5975C63.6681 33.7369 61.2214 34.4596 58.6715 35.7658C58.2925 35.7658 58.103 35.8615 58.103 36.0531H58.1033ZM58.3866 34.7469L58.6708 34.9036V34.4596C58.4813 34.4942 58.3866 34.5899 58.3866 34.7469ZM34.0924 37.0716C34.2819 37.3854 34.3766 37.6292 34.3766 37.8032C34.3766 37.9597 33.9459 38.5954 33.0844 39.7103C32.8949 40.4243 32.8001 41.0947 32.8001 41.7216V42.3226C32.8001 42.4094 32.7485 42.4528 32.6451 42.4528C33.1964 45.3439 33.9115 47.1897 34.7904 47.9901C35.7553 48.7562 36.4273 49.1393 36.8065 49.1396V48.5647C35.3763 48.0251 34.6612 47.3023 34.6612 46.3963V46.2397C34.6612 46.1352 35.3763 45.4124 36.8065 44.0713V43.4707L34.2216 45.6651H33.9374L33.3689 42.6085C34.0579 41.7899 35.2037 40.771 36.8061 39.552V38.8204C35.5659 38.0196 34.9456 37.2446 34.9454 36.4954L35.6689 36.3651C35.7898 36.3651 36.1689 36.6525 36.8061 37.2273V35.3466C34.997 35.7296 34.0924 36.3043 34.0924 37.0706V37.0716ZM58.6724 37.5162L58.1037 37.2286V37.8035C61.172 40.1016 63.3775 42.5741 64.7203 45.2211C65.064 45.5686 65.4517 46.4915 65.8833 47.9898H66.0122V46.9712C66.0122 46.7272 65.9175 46.2918 65.728 45.6651C65.9175 45.6651 66.0122 45.5692 66.0122 45.3775V45.0902C65.3402 45.0902 64.7716 44.6461 64.3065 43.758C64.3065 43.375 64.8751 43.1398 66.0122 43.0525V42.7391H65.5988L63.867 42.8958C63.1949 42.2166 62.8589 41.6854 62.8589 41.3024V40.8584C63.8846 40.5637 64.9459 40.4143 66.0122 40.4145V39.9966C64.4787 39.9966 63.2812 40.1881 62.4197 40.5711C61.9202 40.3796 61.4894 39.9878 61.1274 39.3956C61.1274 38.7166 62.1355 38.377 64.1515 38.3768H66.0122V37.9589L65.2888 37.8022H65.1599C63.2643 37.8022 61.7308 38.1418 60.5593 38.821C60.1283 38.6295 59.887 38.4379 59.8355 38.2462V37.8022C60.5073 37.1232 62.0925 36.592 64.5911 36.2088C65.4184 36.1041 65.8923 36.0518 66.0126 36.0518V35.6339C63.7726 35.6339 61.3777 36.2609 58.8278 37.5149L58.6724 37.5162ZM48.3334 36.497V37.0719C49.8669 37.3853 50.6337 37.9251 50.6337 38.6914L50.3494 38.8217C50.1776 38.8217 49.4108 38.7259 48.0492 38.5344L47.8938 38.8217V38.9784H48.0492C50.1514 39.1178 51.2024 39.4052 51.2021 39.8406V40.5721C51.2021 41.8956 50.0994 42.8619 47.8938 43.471C47.7043 43.8717 47.4201 44.072 47.0411 44.072C46.5586 43.4101 46.3173 42.9225 46.3173 42.6092C46.3173 42.5395 46.3603 42.2434 46.4462 41.7209C46.4462 41.39 45.9207 40.763 44.8697 39.8399C44.8697 39.4742 45.8258 39.1868 47.7378 38.9777V38.821C47.7378 38.6295 47.6 38.5338 47.3244 38.5338C45.9116 38.5338 43.9904 39.2652 41.5608 40.7281V41.3027H41.7161C42.5946 40.815 43.3096 40.5713 43.8611 40.5715H44.7399C45.2914 40.8848 45.6704 41.2244 45.8771 41.5903V42.3216C45.5843 42.6875 45.4379 43.0271 45.4379 43.3404C46.1097 43.6192 46.4456 44.0546 46.4456 44.6466V44.9332C46.4456 45.0722 46.3078 45.2202 46.0321 45.3772C46.0321 45.6377 46.2648 45.8728 46.7301 46.0823C46.7301 45.1768 48.1689 44.0188 51.0465 42.6082C51.5288 41.929 51.77 41.0061 51.77 39.8396C51.081 37.715 50.1249 36.6527 48.9018 36.6527C48.9018 36.5481 48.7123 36.4957 48.3331 36.4957L48.3334 36.497ZM35.2293 38.2475C35.6081 38.6646 35.7975 39.0474 35.7975 39.3959C35.6595 39.7966 35.5217 39.9968 35.384 39.9966C35.022 39.8923 34.7291 39.5528 34.5052 38.9781C34.5059 38.699 34.7473 38.455 35.2297 38.2462L35.2293 38.2475ZM34.0921 39.5536L34.5059 40.1285V40.5725C34.5059 40.7462 34.1698 41.0336 33.4978 41.4346V40.5725C33.498 40.0315 33.6962 39.6915 34.0924 39.5523L34.0921 39.5536ZM53.6574 41.147V41.4346H53.7863V41.147H53.6574ZM53.5024 41.5913C53.5024 42.6362 52.3049 43.8466 49.9099 45.2224C48.6692 46.8419 48.0489 48.3484 48.0492 49.7418C48.0494 51.1353 49.1004 52.006 51.2021 52.3541C51.3916 52.3541 51.4864 52.3019 51.4864 52.1974C51.4864 52.1106 51.5381 51.9713 51.6417 51.7795C49.6256 51.7795 48.6176 51.0481 48.6176 49.5851C48.6176 47.2862 49.9099 45.4924 52.4944 44.2036C53.2698 43.4375 53.6574 42.6103 53.6574 41.7219V41.5916L53.5024 41.5913ZM58.103 42.7408V43.3414C59.8086 45.205 61.4369 47.8174 62.9878 51.1786C63.7632 52.3629 64.1509 53.434 64.1509 54.3918H64.7197V54.2351C64.7197 53.2949 63.2809 50.343 60.4033 45.3794C58.9903 43.6205 58.2235 42.7411 58.103 42.7411V42.7408ZM42.2852 43.7593V43.916C42.7675 45.0306 43.0088 45.7534 43.009 46.0843V46.5286C43.009 46.6328 42.9574 46.6853 42.854 46.6853C42.9575 46.8418 43.0092 47.0856 43.009 47.4165C43.2844 47.3123 43.4222 47.0163 43.4225 46.5286V45.6664C43.4225 44.7083 43.0434 44.0726 42.2852 43.7593ZM28.8976 47.7018V48.2767C29.0011 48.2767 29.3888 47.7455 30.0606 46.683V46.3957C29.5093 46.797 29.1216 47.2324 28.8976 47.7018ZM33.2139 49.2979C33.2139 49.4894 31.7751 51.1351 28.8976 54.2351V54.3918H29.3368C32.1108 51.6039 33.4979 49.9493 33.4982 49.4282L33.2139 49.2979ZM28.8976 51.048V51.6229C29.0527 51.6229 29.6298 51.0394 30.6291 49.8724V49.4282H30.4741C30.3707 49.4282 29.8452 49.968 28.8976 51.0476V51.048ZM43.8623 51.048C43.9655 51.2395 44.0171 51.3788 44.0174 51.4659C44.1379 51.4659 44.379 51.1786 44.7408 50.604V50.3164H44.5858C44.4653 50.3155 44.2241 50.5589 43.8623 51.0467V51.048ZM34.9454 50.8913C34.9454 51.1519 33.9894 52.3187 32.0773 54.3918H32.8005C34.025 53.1028 34.8867 51.9882 35.3853 51.048V50.8913H34.9454ZM34.6612 54.3915H35.385C36.0742 53.8519 36.548 53.2163 36.8065 52.4847H36.6776C35.3509 53.6515 34.6789 54.287 34.6615 54.3915H34.6612ZM44.4308 53.0854V53.6602C44.8272 53.4865 45.0254 53.1469 45.0254 52.6414H44.8704C44.7325 52.6414 44.5859 52.7894 44.4308 53.0854ZM46.4469 54.2348V54.3915C47.584 54.2873 48.4025 54.235 48.9022 54.2348H50.0394L51.0475 54.3915L51.2025 53.7909H51.0475C50.8926 53.7909 50.1258 53.6951 48.7472 53.5036C48.3164 53.5036 47.5496 53.7473 46.4469 54.2348Z" fill="white"/>
<path d="M8.57877 64.5162H10.6699V79.5915H8.57877V71.4159L6.65842 77.7782H4.54568L2.62533 71.4159V79.5915H0.53418V64.5162H2.62533L5.59012 74.2862L8.57877 64.5162ZM20.1015 67.5356V76.5949C20.1015 78.8811 18.2666 80.0025 16.4529 80.0025C14.616 80.0025 12.8039 78.8811 12.8039 76.5949V67.5366C12.8039 65.2719 14.6176 64.1289 16.4529 64.1289C18.2666 64.1289 20.1015 65.2719 20.1015 67.5366V67.5356ZM18.0104 77.0466V67.2337C18.0104 66.4787 17.2208 66.0907 16.4529 66.0907C15.6633 66.0907 14.8951 66.4787 14.8951 67.2337V77.047C14.8951 77.8017 15.6633 78.1899 16.4529 78.1899C17.2208 78.1909 18.0104 77.8017 18.0104 77.047V77.0466ZM22.2355 64.5159H29.4264V66.6295H26.8661V79.613H24.7962V66.6298H22.2355V64.5159ZM36.6177 64.5589H38.7088V79.6348H36.6177V72.2374H33.6529V79.6351H31.5617V64.5592H33.6529V70.1238H36.6177V64.5592V64.5589ZM47.5423 66.651H42.934V70.1235H46.796V72.2371H42.934V77.5427H47.5423V79.6348H40.8425V64.5592H47.5429V66.6513L47.5423 66.651ZM56.8234 71.4605C56.8234 73.0351 55.9056 74.1565 54.4761 74.4155L56.8234 79.613H54.5853L52.2808 74.48H51.7687V79.613H49.6776V64.5159H53.8377C55.6304 64.5159 56.8253 65.7236 56.8253 67.5353V71.4605H56.8234ZM54.7319 70.8781V68.1177C54.7319 67.0177 54.3481 66.6295 53.2383 66.6295H51.7662V72.3664H53.2383C54.3481 72.3664 54.7319 71.9781 54.7319 70.8781ZM61.0482 77.4994H65.6566V79.613H58.959V64.5377H61.0502L61.0482 77.4994ZM73.4698 79.6133L73.1498 77.8017H70.185L69.8862 79.6133H67.7951L70.5691 64.5377H72.7669L75.5409 79.6133H73.4698ZM70.5678 75.6881H72.7872L71.6774 69.3258L70.5678 75.6881ZM83.2004 64.5159H85.27V79.613H83.2004L79.7642 70.2107V79.614H77.673V64.5168H79.7642L83.1998 73.9204V64.5168L83.2004 64.5159ZM91.7142 64.5589C93.5066 64.5589 94.7016 65.7666 94.7016 67.5783V76.6154C94.7016 78.427 93.5066 79.6348 91.7142 79.6348H87.4033V64.5592L91.7142 64.5589ZM92.6104 76.033V68.161C92.6104 67.061 92.2266 66.6513 91.1168 66.6513H89.4951V77.543H91.1168C92.2266 77.543 92.6104 77.1333 92.6104 76.0333V76.033Z" fill="white"/>
</g>
<defs>
<clipPath id="clip0_1715_288">
<rect width="94.1667" height="80" fill="white" transform="translate(0.534668)"/>
</clipPath>
</defs>
</svg>
