<svg width="158" height="48" viewBox="0 0 158 48" fill="none" xmlns="http://www.w3.org/2000/svg">
<path d="M0.383578 0.000853299H10.5629C10.9392 0.000853299 11.3982 1.86387 11.9396 5.5899C12.1055 6.03098 13.7752 14.6619 16.9489 31.4826H17.0846C17.0846 31.1331 19.0105 20.7229 22.8624 0.252018L23.2463 0.00113759H33.042C33.1621 0.00113759 33.29 0.130465 33.4256 0.38912V47.6123C33.4256 47.7492 33.2978 47.8784 33.042 48H25.8886C25.7529 48 25.625 47.8708 25.5047 47.6123V22.974H25.3693C22.3598 38.1065 20.6445 46.4028 20.2233 47.8629L19.9739 48H14.1969C13.8057 48 13.3468 46.4335 12.8202 43.3004C11.1348 36.5022 9.54011 29.6051 8.03601 22.6091H7.92344V47.6117C7.92344 47.7488 7.79548 47.8782 7.53958 47.9997H0.383578C0.248308 47.9997 0.120449 47.8704 0 47.6117V0.387698C0 0.250785 0.12786 0.121553 0.383578 0V0.000853299ZM0.744643 0.502898C3.09189 2.49534 4.76963 4.40405 5.77788 6.22905C6.83114 8.14545 7.37288 9.4154 7.40309 10.0389V10.1527C7.40309 10.3656 7.07204 10.5406 6.40995 10.6775C6.34972 10.6775 5.635 9.40753 4.26579 6.86763C3.18232 5.04263 1.92577 3.4762 0.496147 2.16832V2.53326C1.08319 3.21764 2.04622 4.48759 3.38523 6.34311C4.06233 7.08836 4.905 8.61677 5.91324 10.9284L5.77788 11.1795V11.2933C5.94335 11.2933 6.02609 11.3389 6.02609 11.4301C7.98216 10.335 9.28383 9.78745 9.9311 9.78745C9.9311 9.68107 10.6834 9.46821 12.1881 9.14887C12.096 8.98988 12.0492 8.80827 12.0527 8.62407L11.1725 8.76089H10.8111C10.8111 8.33517 11.1421 7.82573 11.8042 7.23257C11.5183 5.24013 10.9316 3.71921 10.044 2.6698C8.91545 1.2252 8.29097 0.502803 8.17052 0.502613H7.53845C10.1416 3.19535 11.4432 5.31693 11.4432 6.86734C11.2629 7.24774 11.0899 7.45311 10.9242 7.48345H10.8117C10.6008 7.48345 10.2622 6.85227 9.79602 5.5899C9.34461 4.57102 7.87747 2.87526 5.39458 0.502613H4.7853V0.64C5.56765 0.989677 6.86219 2.34325 8.66892 4.70073C9.6766 6.20658 10.1804 7.47662 10.1804 8.51086C10.0604 8.84537 9.93251 9.01262 9.79686 9.01262C8.87886 6.83776 7.37419 4.55652 5.28285 2.16889C5.28285 2.03179 4.73361 1.47665 3.63513 0.503467H3.1387C7.15628 4.80806 9.16498 7.77377 9.16479 9.4006C8.89406 9.61337 8.51789 9.78062 8.03629 9.90236C6.53162 6.38929 5.23708 4.22969 4.15266 3.42357C2.6782 1.47684 1.67014 0.503467 1.1285 0.503467H0.744923L0.744643 0.502898ZM9.9311 0.502898C9.9311 0.700871 10.1417 0.830199 10.5629 0.89088V0.753778C10.5629 0.586524 10.4726 0.502803 10.2922 0.502613L9.9311 0.502898ZM22.7285 3.56096V3.94866C25.8731 2.57991 28.5138 1.89554 30.6505 1.89554H31.6664L32.9078 2.03236V1.64466L32.0275 1.53088H30.5377C28.4613 1.53088 25.8583 2.20767 22.7285 3.56124V3.56096ZM22.3671 5.97874C25.0607 4.53376 28.5366 3.81137 32.7947 3.81156H32.9072V3.42357H31.5305C28.6865 3.48444 25.632 4.16123 22.3671 5.45394V5.97874ZM0.496429 5.20306V5.7051C2.93411 8.91401 4.15285 10.9519 4.15266 11.8187C4.22771 11.8187 4.26523 11.9023 4.26523 12.0695C4.19019 12.4041 3.94197 12.5714 3.52059 12.5716C3.14442 12.5716 2.72304 11.6438 2.25644 9.7883C1.71499 8.7844 1.12822 7.89466 0.496147 7.11908V7.872C1.60945 9.4537 2.24143 10.7693 2.39209 11.8187V12.4348H2.14359C1.55673 12.4348 1.13544 11.8036 0.879725 10.5412C0.714249 10.5412 0.631511 10.4119 0.631511 10.1532H0.496147V11.1798C0.752053 11.9404 0.879913 12.3586 0.879725 12.4345C0.714249 12.5259 0.58639 12.5716 0.496147 12.5716V13.0734C0.661623 12.9975 0.789483 12.9596 0.879725 12.9596C6.47721 12.9596 10.871 15.2409 14.061 19.8036H14.1963V19.6898C14.0309 19.0054 13.9481 18.4959 13.9481 18.1612H13.1807C13.1807 18.0395 12.9324 17.6593 12.4358 17.0206V16.8838C12.9776 16.7165 13.3538 16.6329 13.5643 16.6329V16.3817C13.5643 16.2145 13.4815 16.1308 13.316 16.1308H11.6911C11.1643 16.1308 10.6602 15.7887 10.1787 15.1043C10.1787 14.8612 11.059 14.7395 12.8196 14.7393H13.1807V14.2143H12.6851C10.9545 14.2143 9.78091 14.3892 9.16422 14.7391C8.30645 14.3133 7.84745 13.9712 7.78723 13.7125V13.5987C8.08835 13.5987 8.92323 13.3402 10.2919 12.823C11.1495 12.7472 11.8191 12.7093 12.3007 12.7093H12.8196V12.4356C12.8196 12.2682 12.7369 12.1845 12.5714 12.1845C10.8562 12.1845 9.09575 12.656 7.28996 13.599C6.85338 13.599 6.05601 13.3024 4.89787 12.7093C4.89787 12.6181 5.10856 12.3215 5.52994 11.8195C5.52994 11.6523 5.44711 11.5686 5.28145 11.5686C5.12711 11.6454 4.95704 11.6844 4.78502 11.6824C4.06251 9.78119 2.63298 7.62159 0.496429 5.20363V5.20306ZM21.8707 8.25856C23.5108 7.30055 26.0613 6.57816 29.522 6.09138C30.6049 5.75668 31.5228 5.58933 32.2757 5.58933H32.6593L32.9075 5.70311V5.33874H31.779C29.5068 5.33874 26.3244 6.09915 22.2318 7.61998C21.9909 7.93951 21.8704 8.15237 21.8704 8.25856H21.8707ZM21.4871 10.4033H21.5997C24.4284 9.21676 26.3168 8.6236 27.265 8.62379H28.0099C28.0099 9.64286 27.3403 10.1524 26.0011 10.1524C25.1734 10.3196 23.7514 10.7911 21.7353 11.5666C21.5697 11.4752 21.4417 11.4296 21.3515 11.4298L21.2389 11.6807C24.1282 13.7189 26.468 15.7112 28.2584 17.6577C28.2584 17.7947 28.6797 18.1293 29.5223 18.6615C30.9065 20.1678 32.035 21.1864 32.9078 21.7173V21.4665C32.9114 21.285 32.8728 21.1053 32.7952 20.9417C32.8703 20.8049 32.9078 20.6377 32.9078 20.4399V20.189L32.1629 20.5767C31.9377 20.5767 31.5164 20.1965 30.899 19.4361C31.6814 18.919 32.351 18.6604 32.9078 18.6604V18.1598C31.4934 18.5552 30.741 18.8517 30.6508 19.0495C29.8983 18.6234 29.5221 18.1975 29.5223 17.7718C31.1324 17.1026 32.2609 16.768 32.9078 16.768V16.3803C31.9748 16.3803 30.7183 16.7605 29.1384 17.5209C28.9578 17.5209 28.4988 17.1863 27.7614 16.5171C27.7614 15.9545 29.3562 15.3993 32.5456 14.8517C32.7111 14.9431 32.8314 14.9888 32.9067 14.9888V11.9324C28.0165 11.9324 25.0448 12.3127 23.9915 13.0734C22.9829 12.692 22.479 12.3117 22.48 11.9324C23.3828 11.2177 24.9775 10.7083 27.2642 10.4041H27.3767C27.9034 10.9973 28.4074 11.2939 28.8888 11.2939C29.0843 11.2939 29.3777 11.0429 29.7691 10.5409C30.1455 10.2825 30.5216 10.1532 30.8976 10.1532C31.7554 10.2443 32.425 10.2899 32.9064 10.2901V9.14944L32.0261 9.01262H31.2815C30.4987 9.01262 29.8291 9.52206 29.2727 10.5409L28.3924 10.7918L28.1442 10.4041V9.90123C28.1442 9.0496 28.7309 8.41851 29.9045 8.00796C30.0101 7.6581 30.3863 7.44514 31.033 7.3691H31.9132C32.2596 7.36917 32.6007 7.45533 32.9064 7.61998V7.11822C32.1088 6.95097 31.6123 6.86734 31.4168 6.86734C31.1759 6.86734 29.9571 7.28557 27.7603 8.12203C26.4815 8.21324 24.4277 8.85201 21.5989 10.0383C21.5238 10.2056 21.4863 10.3272 21.4863 10.4033H21.4871ZM31.2823 9.51467H32.2754V9.7883H31.0338C31.0488 9.60474 31.1316 9.51353 31.2823 9.51467ZM32.1629 12.3224C32.4938 12.3983 32.6593 12.6112 32.6593 12.9613C32.539 12.9613 32.4112 13.0829 32.2757 13.3262L31.6664 13.2124C30.9291 13.2124 29.0031 13.6384 25.8883 14.4902H25.6173C24.9554 14.0794 24.6244 13.8209 24.6244 13.7145V13.4633C24.6244 12.8552 27.1372 12.475 32.1629 12.3227V12.3224ZM31.6659 13.7125H31.7784C32.2901 13.758 32.5459 13.8872 32.5459 14.1002V14.214C32.5459 14.4271 31.3723 14.7237 29.025 15.1037C28.9346 15.1949 28.3853 15.4535 27.3773 15.8794C26.8206 15.6663 26.4896 15.3697 26.3842 14.9897C28.3704 14.138 30.131 13.7122 31.6659 13.7122V13.7125ZM20.7186 14.2145V14.6025C23.2765 16.5034 24.9542 17.8189 25.7515 18.5492H25.8872V18.1601C24.3692 16.5911 22.6274 15.2607 20.7197 14.2131L20.7186 14.2145ZM0.496429 16.2432V16.6312H1.62521C2.61826 16.6312 4.50669 17.1862 7.29052 18.2963C9.11038 19.0873 10.6978 20.266 12.0527 21.8325L15.0772 26.0301C15.3329 26.6386 15.4609 26.9808 15.461 27.0566H15.5736V26.9198C15.5736 25.5511 14.1066 23.3078 11.1725 20.1899C8.43328 18.0304 5.21315 16.6768 1.51208 16.1291C1.04567 16.205 0.70712 16.2429 0.496429 16.2429V16.2432ZM20.3586 16.5166C20.3601 16.6933 20.3132 16.8671 20.223 17.0186C21.6976 17.201 23.4582 18.3036 25.5047 20.3264V19.8016C25.3546 19.8016 24.7226 19.2541 23.6088 18.1592C22.3448 17.3683 21.2614 16.8207 20.3586 16.5166ZM0.496429 18.1618V18.6635H1.01565C3.70886 18.6635 5.80076 19.1731 7.29136 20.1921H7.40393V19.6895C5.44636 18.671 3.14386 18.1618 0.496429 18.1618ZM19.9739 18.2966V18.7986C21.2381 19.4068 22.9158 20.5474 25.0072 22.2205H25.1197V21.9694C23.6751 20.5701 21.9597 19.3458 19.9736 18.2966H19.9739ZM26.0003 18.2966V18.9127C29.5665 22.2587 31.8687 24.2054 32.907 24.7526V24.2509C31.0711 22.7907 28.7689 20.806 26.0003 18.2966ZM0.496429 20.0533V20.5796L0.744643 20.4427C3.01684 20.4427 5.23633 21.0358 7.40309 22.2219V21.9711C6.00386 20.6937 3.70164 20.0549 0.496429 20.0548V20.0533ZM7.92203 20.0533C7.92203 20.5096 8.38093 20.9811 9.29875 21.4679C12.0826 23.81 13.798 25.9244 14.4451 27.811C15.1222 28.7237 15.4608 29.4842 15.4608 30.0925C15.3703 30.351 15.1145 30.4802 14.6933 30.4802H14.5808C14.4455 30.4802 14.2348 29.9328 13.9487 28.8378C12.6695 26.7836 10.9918 24.7908 8.91545 22.8594L8.66695 22.7223H8.53159V22.8594C8.53159 22.9807 9.24631 23.7867 10.6757 25.2772C12.7673 27.6801 13.813 29.4976 13.813 30.7297C13.4669 30.9883 13.1358 31.1176 12.8199 31.1174C11.6612 28.5926 10.5252 26.8133 9.41187 25.7792H9.2993V25.893C9.2993 26.182 9.88617 27.0716 11.0599 28.5619C11.7218 29.9915 12.0527 30.7975 12.0527 30.9797V31.2306C11.9327 31.5804 11.6393 31.7554 11.1727 31.7554L10.293 29.7034H10.1804L10.8122 32.5094C13.2199 31.4143 14.9353 30.8668 15.9586 30.8668L15.8229 32.1215C15.9134 32.6386 16.0413 32.8971 16.2068 32.8971H16.455L16.7032 32.7603C16.7032 32.4713 16.5829 32.1367 16.3422 31.7565V31.3688C16.3422 31.2774 16.3797 31.2317 16.4547 31.2317C16.0636 29.0722 14.5965 26.4488 12.0536 23.3614C10.2782 21.5364 8.90138 20.4338 7.92315 20.0536L7.92203 20.0533ZM19.5912 20.3267V20.6916C21.6827 21.9694 23.2774 23.0263 24.3754 23.8626C24.3902 24.0452 24.4729 24.1365 24.6236 24.1365L24.7589 23.8626V23.7488C22.3213 21.8021 20.5984 20.6615 19.5903 20.327L19.5912 20.3267ZM26.0011 20.4405V21.0793C26.2719 21.2011 27.4906 22.22 29.6574 24.1362C30.8915 25.14 31.5611 25.6419 31.6662 25.6421V25.893L31.0344 26.0298H30.7862C30.3348 26.0298 28.74 24.8892 26.002 22.6079V22.7217C26.002 23.1474 26.506 23.657 27.5141 24.2503C27.9955 24.7674 28.7103 25.3605 29.6585 26.0295V26.2807C29.0715 26.4479 28.6049 26.5316 28.259 26.5316C28.244 26.3489 27.5368 25.8014 26.1373 24.8889C26.1373 24.7975 26.0922 24.7519 26.002 24.7521V25.1398C26.9048 25.9918 27.454 26.4177 27.6497 26.4175V26.5313C27.2884 27.0484 26.7391 27.307 26.002 27.307V28.0604C28.5449 26.9657 30.8471 26.4183 32.9086 26.4181V25.8933L29.3878 23.2479C28.9062 22.9741 27.7777 22.0388 26.0023 20.4419L26.0011 20.4405ZM19.3427 21.7185V22.1062C19.3729 22.1974 20.5014 22.9959 22.7282 24.5018C22.7282 24.5928 23.2323 25.0186 24.2406 25.7792H24.3759V25.3912C23.4277 24.3723 21.75 23.1481 19.3427 21.7185ZM0.496429 22.4711V22.8591H2.50522C4.16017 22.8591 5.79241 23.4902 7.40196 24.7524V24.3874C5.79185 23.034 4.03887 22.3572 2.14303 22.357H1.12822L0.496429 22.4711ZM18.9591 23.7491V24.3877C21.5773 25.7109 23.1271 27.0189 23.6085 28.3116H23.8795V27.5587C22.9313 26.4334 21.2912 25.1635 18.9591 23.7488V23.7491ZM1.01565 24.5012H0.496429V25.026L0.744643 24.8889H1.37672C3.43823 24.8889 5.44702 25.5657 7.40309 26.9193V26.5316C5.46184 25.1019 3.58091 24.3871 1.76029 24.3871L1.01565 24.5012ZM18.5981 25.7812C18.5981 25.8267 18.5153 26.5035 18.3498 27.8116C18.4249 27.9788 18.4624 28.108 18.4624 28.1993C18.2517 28.1993 18.0862 28.5339 17.966 29.2031H18.1013C18.1764 28.9596 18.4246 28.8379 18.846 28.8381H19.3427C20.6218 28.8381 21.7127 29.7658 22.6153 31.6211V32.8988C22.3596 33.7048 22.2318 34.2066 22.2318 34.4044V34.7921C22.2616 34.9596 22.3443 35.0433 22.48 35.0433C22.48 34.8157 22.7358 33.4241 23.2474 30.8685C22.9765 30.8685 22.4724 30.3589 21.7351 29.3399C21.2989 28.9295 20.464 28.4657 19.2304 27.9484C18.8843 27.5835 18.7112 27.1577 18.7112 26.6709V26.4198H18.8465C20.4114 26.9522 21.5851 27.9256 22.3674 29.3399C22.5329 29.6137 22.6156 29.8647 22.6156 30.0928H22.7282C23.3149 30.0928 23.6082 29.7582 23.6082 29.089H23.4956L23.2474 29.2028C21.1559 27.1337 19.6061 25.947 18.5981 25.6427V25.7795V25.7812ZM0.496429 26.283V26.6707H0.631793C1.50458 26.6707 2.42248 26.838 3.38551 27.1727V27.3095C3.11459 27.8113 2.82116 28.1079 2.50522 28.1993C1.7527 27.9408 1.25608 27.8115 1.01537 27.8113H0.496429V29.5908C0.496429 30.1993 0.624288 30.5339 0.880007 30.5946C1.45186 29.6667 2.03871 29.2029 2.64058 29.2031C3.13701 28.1079 3.88935 27.5604 4.89759 27.5604C6.02609 27.5604 6.69569 28.0699 6.90638 29.089C7.10187 29.089 7.22983 29.2943 7.29024 29.7048H7.40281V28.8378C7.40281 27.6822 6.14635 27.0435 3.63344 26.9215C3.63344 26.6479 2.76103 26.435 1.01621 26.283H0.496429ZM1.01537 28.1993C1.42174 28.4425 1.70767 28.5642 1.87314 28.5642V28.701C1.84313 28.9142 1.5572 29.1271 1.01537 29.3399L0.631793 28.8378V28.4501C0.631793 28.2829 0.759652 28.1993 1.01537 28.1993ZM26.0011 31.4843V32.0091C26.7537 31.7506 27.551 31.3247 28.3932 30.7314C29.6422 30.3057 31.1468 29.9635 32.9072 29.7048V29.3399C30.8607 29.4616 28.7241 30.0928 26.4973 31.2334C26.1663 31.2334 26.0009 31.317 26.0009 31.4843H26.0011ZM26.2485 30.3437L26.4967 30.4805V30.0928C26.3312 30.1229 26.2485 30.2066 26.2485 30.3437ZM5.03295 32.3738C5.19843 32.6478 5.28117 32.8607 5.28117 33.0126C5.28117 33.1493 4.905 33.7045 4.15266 34.678C3.98719 35.3015 3.90445 35.887 3.90445 36.4345V36.9593C3.90445 37.0351 3.85933 37.0731 3.76909 37.0731C4.2505 39.5978 4.87498 41.2096 5.64251 41.9086C6.48509 42.5776 7.07195 42.9122 7.40309 42.9124V42.4104C6.15414 41.9392 5.52966 41.308 5.52966 40.5168V40.38C5.52966 40.2888 6.15414 39.6576 7.40309 38.4865V37.962L5.1458 39.8783H4.89759L4.40116 37.209C5.00284 36.4941 6.00339 35.6044 7.40281 34.5398V33.9009C6.31971 33.2016 5.77806 32.5248 5.77788 31.8706L6.40967 31.7568C6.51529 31.7568 6.84634 32.0078 7.40281 32.5097V30.8673C5.8229 31.2019 5.03295 31.7037 5.03295 32.3729V32.3738ZM26.4981 32.762L26.0014 32.5109V33.0129C28.6809 35.0198 30.607 37.179 31.7796 39.4906C32.0798 39.794 32.4183 40.5999 32.7952 41.9083H32.9078V41.0189C32.9078 40.8057 32.8251 40.4255 32.6596 39.8783C32.8251 39.8783 32.9078 39.7945 32.9078 39.6271V39.3762C32.3209 39.3762 31.8244 38.9884 31.4182 38.2128C31.4182 37.8783 31.9148 37.673 32.9078 37.5967V37.3231H32.5467L31.0344 37.4599C30.4475 36.8667 30.1541 36.4029 30.1541 36.0684V35.6807C31.0498 35.4233 31.9766 35.2929 32.9078 35.293V34.9281C31.5686 34.9281 30.5228 35.0953 29.7705 35.4298C29.3343 35.2626 28.9581 34.9204 28.642 34.4033C28.642 33.8103 29.5223 33.5137 31.2829 33.5135H32.9078V33.1486L32.276 33.0118H32.1634C30.5081 33.0118 29.1689 33.3083 28.1459 33.9015C27.7695 33.7343 27.5588 33.5669 27.5138 33.3995V33.0118C28.1005 32.4188 29.4848 31.955 31.6667 31.6203C32.3892 31.5289 32.803 31.4832 32.9081 31.4832V31.1182C30.952 31.1182 28.8606 31.6658 26.6338 32.7609L26.4981 32.762ZM17.4693 31.872V32.374C18.8085 32.6477 19.4781 33.1191 19.4781 33.7883L19.2298 33.9021C19.0798 33.9021 18.4102 33.8185 17.2211 33.6512L17.0854 33.9021V34.0389H17.2211C19.0569 34.1606 19.9747 34.4116 19.9745 34.7918V35.4307C19.9745 36.5865 19.0115 37.4303 17.0854 37.9622C16.9199 38.3121 16.6717 38.487 16.3408 38.487C15.9194 37.909 15.7087 37.4832 15.7087 37.2096C15.7087 37.1487 15.7462 36.8902 15.8213 36.4339C15.8213 36.1449 15.3624 35.5974 14.4445 34.7913C14.4445 34.4719 15.2794 34.2209 16.9492 34.0383V33.9015C16.9492 33.7343 16.8288 33.6506 16.5881 33.6506C15.3544 33.6506 13.6766 34.2894 11.5549 35.5669V36.0687H11.6905C12.4577 35.6428 13.0821 35.4299 13.5637 35.4301H14.3311C14.8127 35.7038 15.1438 36.0003 15.3243 36.3199V36.9584C15.0686 37.278 14.9407 37.5745 14.9407 37.8482C15.5274 38.0917 15.8207 38.4719 15.8207 38.9888V39.2391C15.8207 39.3605 15.7003 39.4897 15.4596 39.6268C15.4596 39.8544 15.6628 40.0596 16.0692 40.2426C16.0692 39.4519 17.3256 38.4406 19.8386 37.2087C20.2598 36.6156 20.4704 35.8097 20.4704 34.791C19.8687 32.9356 19.0338 32.008 17.9657 32.008C17.9657 31.9166 17.8001 31.8709 17.469 31.8709L17.4693 31.872ZM6.02581 33.4006C6.35657 33.7649 6.52195 34.0992 6.52195 34.4036C6.4015 34.7534 6.28115 34.9283 6.16089 34.9281C5.84476 34.837 5.58895 34.5406 5.39345 34.0386C5.39402 33.7949 5.60489 33.5819 6.02609 33.3995L6.02581 33.4006ZM5.03267 34.5412L5.39402 35.0433V35.431C5.39402 35.5827 5.10059 35.8336 4.51373 36.1839V35.431C4.51391 34.9586 4.68699 34.6616 5.03295 34.5401L5.03267 34.5412ZM22.1186 35.9327V36.1839H22.2312V35.9327H22.1186ZM21.9833 36.3207C21.9833 37.2332 20.9375 38.2902 18.846 39.4917C17.7625 40.906 17.2209 42.2215 17.2211 43.4384C17.2212 44.6552 18.1391 45.4156 19.9745 45.7196C20.14 45.7196 20.2227 45.674 20.2227 45.5828C20.2227 45.5069 20.2679 45.3853 20.3583 45.2178C18.5978 45.2178 17.7175 44.5791 17.7175 43.3015C17.7175 41.2939 18.846 39.7274 21.103 38.602C21.7801 37.9329 22.1186 37.2105 22.1186 36.4348V36.321L21.9833 36.3207ZM26.0009 37.3245V37.849C27.4903 39.4764 28.9123 41.7578 30.2666 44.6931C30.9438 45.7273 31.2823 46.6626 31.2823 47.4991H31.779V47.3623C31.779 46.5412 30.5226 43.9634 28.0096 39.6288C26.7757 38.0928 26.1061 37.3248 26.0009 37.3248V37.3245ZM12.1875 38.214V38.3508C12.6087 39.3242 12.8194 39.9553 12.8196 40.2443V40.6323C12.8196 40.7233 12.7746 40.7691 12.6842 40.7691C12.7747 40.9059 12.8198 41.1187 12.8196 41.4077C13.0601 41.3167 13.1805 41.0582 13.1807 40.6323V39.8794C13.1807 39.0428 12.8496 38.4876 12.1875 38.214ZM0.496429 41.6569V42.1589C0.586859 42.1589 0.925409 41.695 1.51208 40.7671V40.5163C1.03066 40.8667 0.692111 41.2469 0.496429 41.6569ZM4.26579 43.0507C4.26579 43.2179 3.00934 44.6551 0.496429 47.3623V47.4991H0.880007C3.30249 45.0644 4.51382 43.6196 4.51401 43.1644L4.26579 43.0507ZM0.496429 44.579V45.081C0.631886 45.081 1.13591 44.5715 2.00851 43.5524V43.1644H1.87314C1.7829 43.1644 1.324 43.6359 0.496429 44.5787V44.579ZM13.5648 44.579C13.6549 44.7462 13.7 44.8679 13.7002 44.9439C13.8054 44.9439 14.016 44.6931 14.332 44.1913V43.9401H14.1966C14.0914 43.9394 13.8808 44.1519 13.5648 44.5778V44.579ZM5.77788 44.4422C5.77788 44.6697 4.94299 45.6887 3.27322 47.4991H3.90473C4.97413 46.3735 5.72656 45.4001 6.16201 44.579V44.4422H5.77788ZM5.52966 47.4988H6.16173C6.7636 47.0276 7.17739 46.4725 7.40309 45.8337H7.29052C6.132 46.8526 5.54514 47.4076 5.52994 47.4988H5.52966ZM14.0612 46.3582V46.8602C14.4074 46.7085 14.5805 46.4119 14.5805 45.9705H14.4451C14.3247 45.9705 14.1967 46.0997 14.0612 46.3582ZM15.8218 47.362V47.4988C16.8149 47.4078 17.5296 47.3622 17.966 47.362H18.9591L19.8394 47.4988L19.9748 46.9743H19.8394C19.7041 46.9743 19.0345 46.8907 17.8306 46.7234C17.4544 46.7234 16.7848 46.9363 15.8218 47.362Z" fill="#FF759E"/>
<path d="M54.0793 14.9413H56.5887V33.0317H54.0793V23.221L51.7749 30.8557H49.2396L46.9352 23.221V33.0317H44.4258V14.9413H46.9352L50.4929 26.6653L54.0793 14.9413ZM67.9066 18.5646V29.4357C67.9066 32.1792 65.7046 33.5249 63.5282 33.5249C61.324 33.5249 59.1495 32.1792 59.1495 29.4357V18.5658C59.1495 15.8481 61.3259 14.4766 63.5282 14.4766C65.7046 14.4766 67.9066 15.8481 67.9066 18.5658V18.5646ZM65.3972 29.9778V18.2023C65.3972 17.2963 64.4498 16.8307 63.5282 16.8307C62.5808 16.8307 61.6589 17.2963 61.6589 18.2023V29.9782C61.6589 30.8839 62.5808 31.3498 63.5282 31.3498C64.4498 31.3509 65.3972 30.8839 65.3972 29.9782V29.9778ZM70.4674 14.9409H79.0965V17.4772H76.0241V33.0575H73.5402V17.4776H70.4674V14.9409ZM87.726 14.9925H90.2354V33.0836H87.726V24.2067H84.1682V33.084H81.6589V14.9929H84.1682V21.6704H87.726V14.9929V14.9925ZM100.836 17.503H95.3055V21.67H99.9399V24.2063H95.3055V30.5731H100.836V33.0836H92.7958V14.9929H100.836V17.5034L100.836 17.503ZM111.973 23.2745C111.973 25.164 110.871 26.5097 109.156 26.8204L111.973 33.0575H109.287L106.522 26.8978H105.907V33.0575H103.398V14.9409H108.39C110.541 14.9409 111.975 16.3902 111.975 18.5642V23.2745H111.973ZM109.463 22.5757V19.2631C109.463 17.9431 109.003 17.4772 107.671 17.4772H105.904V24.3615H107.671C109.003 24.3615 109.463 23.8956 109.463 22.5757ZM117.043 30.5211H122.573V33.0575H114.536V14.9671H117.045L117.043 30.5211ZM131.948 33.0578L131.564 30.8839H128.007L127.648 33.0578H125.139L128.468 14.9671H131.105L134.434 33.0578H131.948ZM128.466 28.3475H131.129L129.798 20.7128L128.466 28.3475ZM143.625 14.9409H146.109V33.0575H143.625L139.502 21.7748V33.0586H136.992V14.9421H139.502L143.624 26.2263V14.9421L143.625 14.9409ZM153.842 14.9925C155.993 14.9925 157.427 16.4418 157.427 18.6158V29.4603C157.427 31.6343 155.993 33.0836 153.842 33.0836H148.669V14.9929L153.842 14.9925ZM154.917 28.7615V19.3151C154.917 17.9951 154.457 17.5034 153.125 17.5034H151.179V30.5735H153.125C154.457 30.5735 154.917 30.0818 154.917 28.7619V28.7615Z" fill="#FF759E"/>
</svg>
