<svg width="113" height="96" viewBox="0 0 113 96" fill="none" xmlns="http://www.w3.org/2000/svg">
<g clip-path="url(#clip0)">
<path d="M33.8811 0.00117255H47.8688C48.386 0.00117255 49.0166 2.56121 49.7606 7.68128C49.9885 8.28738 52.283 20.1474 56.6441 43.2613H56.8305C56.8305 42.7811 59.477 28.4761 64.7701 0.346307L65.2976 0.0015632H78.7582C78.9232 0.0015632 79.0989 0.179277 79.2853 0.534703V65.4258C79.2853 65.6139 79.1096 65.7915 78.7582 65.9585H68.9284C68.742 65.9585 68.5662 65.7809 68.4009 65.4258V31.5694H68.2149C64.0794 52.3634 61.7223 63.7637 61.1435 65.7701L60.8009 65.9585H52.8625C52.3249 65.9585 51.6943 63.8059 50.9707 59.5006C48.6548 50.1589 46.4634 40.6814 44.3966 31.0679H44.2419V65.425C44.2419 65.6134 44.0661 65.7911 43.7144 65.9581H33.8811C33.6952 65.9581 33.5195 65.7804 33.354 65.425V0.532749C33.354 0.344613 33.5297 0.16703 33.8811 0V0.00117255ZM34.3772 0.691049C37.6027 3.42893 39.9081 6.05176 41.2936 8.55956C42.7409 11.1929 43.4853 12.938 43.5268 13.7948V13.9511C43.5268 14.2438 43.0719 14.4842 42.1621 14.6723C42.0794 14.6723 41.0973 12.9272 39.2158 9.43705C37.7269 6.92926 36.0003 4.77676 34.0358 2.97957V3.48105C34.8425 4.42147 36.1658 6.16655 38.0058 8.71629C38.9362 9.74036 40.0941 11.8406 41.4796 15.017L41.2936 15.3622V15.5185C41.521 15.5185 41.6347 15.5812 41.6347 15.7065C44.3226 14.2017 46.1112 13.4493 47.0007 13.4493C47.0007 13.3031 48.0345 13.0106 50.1021 12.5718C49.9756 12.3533 49.9112 12.1038 49.9161 11.8506L48.7065 12.0386H48.2099C48.2099 11.4537 48.6648 10.7536 49.5746 9.93853C49.1817 7.20065 48.3754 5.11069 47.1557 3.66866C45.605 1.68359 44.7469 0.690919 44.5814 0.690659H43.7129C47.2899 4.39085 49.0785 7.30618 49.0785 9.43666C48.8307 9.95937 48.593 10.2416 48.3654 10.2833H48.2107C47.9209 10.2833 47.4557 9.41594 46.8151 7.68128C46.1948 6.2812 44.1787 3.951 40.7669 0.690659H39.9297V0.879447C41.0047 1.35995 42.7836 3.21995 45.2663 6.45944C46.651 8.52868 47.3433 10.2739 47.3433 11.6951C47.1783 12.1547 47.0026 12.3846 46.8162 12.3846C45.5548 9.39601 43.4871 6.26127 40.6134 2.98035C40.6134 2.79195 39.8586 2.02911 38.3492 0.691831H37.667C43.1877 6.60692 45.9479 10.6822 45.9477 12.9177C45.5756 13.2101 45.0587 13.4399 44.3969 13.6072C42.3293 8.77974 40.5505 5.81216 39.0603 4.70445C37.0342 2.02937 35.649 0.691831 34.9047 0.691831H34.3776L34.3772 0.691049ZM47.0007 0.691049C47.0007 0.963091 47.2901 1.14081 47.8688 1.22419V1.03579C47.8688 0.805964 47.7448 0.690919 47.4968 0.690659L47.0007 0.691049ZM64.586 4.89324V5.42599C68.9071 3.54515 72.5358 2.60473 75.4719 2.60473H76.868L78.5738 2.79273V2.25998L77.3641 2.10364H75.3169C72.4637 2.10364 68.8868 3.03364 64.586 4.89363V4.89324ZM64.0895 8.2156C67.7908 6.23 72.5671 5.23733 78.4183 5.23759H78.573V4.70445H76.6812C72.7731 4.7881 68.5758 5.7181 64.0895 7.49445V8.2156ZM34.0362 7.14971V7.83958C37.3859 12.2491 39.0606 15.0494 39.0603 16.2404C39.1634 16.2404 39.215 16.3554 39.215 16.5852C39.1119 17.0448 38.7708 17.2748 38.1918 17.2751C37.6749 17.2751 37.0958 16.0002 36.4547 13.4505C35.7106 12.071 34.9043 10.8483 34.0358 9.78257V10.8172C35.5656 12.9907 36.434 14.7984 36.6411 16.2404V17.0871H36.2996C35.4932 17.0871 34.9143 16.2197 34.5629 14.4851C34.3355 14.4851 34.2218 14.3074 34.2218 13.9519H34.0358V15.3626C34.3874 16.4077 34.5631 16.9824 34.5629 17.0867C34.3355 17.2123 34.1598 17.2751 34.0358 17.2751V17.9646C34.2632 17.8603 34.4389 17.8082 34.5629 17.8082C42.2546 17.8082 48.2922 20.9431 52.6757 27.2128H52.8617V27.0565C52.6343 26.116 52.5206 25.4159 52.5206 24.956H51.466C51.466 24.7887 51.1248 24.2662 50.4424 23.3886V23.2006C51.187 22.9708 51.7039 22.8558 51.9931 22.8558V22.5107C51.9931 22.2809 51.8794 22.166 51.652 22.166H49.4192C48.6953 22.166 48.0025 21.6958 47.341 20.7553C47.341 20.4213 48.5506 20.2541 50.9699 20.2539H51.466V19.5323H50.785C48.407 19.5323 46.7943 19.7727 45.9469 20.2535C44.7682 19.6685 44.1375 19.1983 44.0547 18.8428V18.6865C44.4685 18.6865 45.6157 18.3312 47.4964 17.6206C48.6749 17.5164 49.595 17.4642 50.2568 17.4642H50.9699V17.0882C50.9699 16.8581 50.8562 16.7431 50.6288 16.7431C48.2719 16.7431 45.8528 17.391 43.3714 18.6869C42.7715 18.6869 41.6758 18.2793 40.0843 17.4642C40.0843 17.3389 40.3739 16.9314 40.9529 16.2416C40.9529 16.0118 40.8391 15.8969 40.6114 15.8969C40.3993 16.0024 40.1656 16.056 39.9293 16.0532C38.9364 13.4407 36.9721 10.4731 34.0362 7.15049V7.14971ZM63.4073 11.3484C65.6611 10.0319 69.1657 9.03928 73.9212 8.37038C75.4093 7.91046 76.6706 7.6805 77.7052 7.6805H78.2323L78.5734 7.83685V7.33615H77.0227C73.9003 7.33615 69.5273 8.38106 63.9035 10.4709C63.5724 10.91 63.4069 11.2025 63.4069 11.3484H63.4073ZM62.8802 14.2955H63.0349C66.9219 12.6651 69.5168 11.85 70.8198 11.8503H71.8434C71.8434 13.2506 70.9233 13.9508 69.0831 13.9508C67.9456 14.1806 65.9917 14.8284 63.2213 15.8941C62.9937 15.7685 62.8178 15.7059 62.6938 15.7061L62.5391 16.0509C66.5094 18.8516 69.7246 21.5893 72.1849 24.2641C72.1849 24.4523 72.7638 24.9121 73.9216 25.6435C75.8237 27.7133 77.3744 29.1129 78.5738 29.8426V29.4978C78.5787 29.2485 78.5257 29.0015 78.4191 28.7767C78.5222 28.5888 78.5738 28.359 78.5738 28.0872V27.7424L77.5501 28.2752C77.2408 28.2752 76.6619 27.7527 75.8134 26.7078C76.8885 25.9972 77.8086 25.6419 78.5738 25.6419V24.954C76.6302 25.4973 75.5963 25.9049 75.4723 26.1766C74.4383 25.5911 73.9214 25.0059 73.9216 24.4209C76.1341 23.5013 77.6848 23.0415 78.5738 23.0415V22.5088C77.2917 22.5088 75.5651 23.0312 73.3941 24.0761C73.1459 24.0761 72.5151 23.6163 71.502 22.6968C71.502 21.9236 73.6933 21.1608 78.0761 20.4082C78.3034 20.5338 78.4688 20.5966 78.5722 20.5966V16.3968C71.8525 16.3968 67.7689 16.9194 66.3216 17.9646C64.9356 17.4405 64.2433 16.9179 64.2445 16.3968C65.4851 15.4147 67.6765 14.7146 70.8186 14.2967H70.9733C71.697 15.1118 72.3896 15.5193 73.0511 15.5193C73.3198 15.5193 73.723 15.1744 74.2608 14.4847C74.7779 14.1295 75.2948 13.9519 75.8115 13.9519C76.9902 14.077 77.9103 14.1397 78.5718 14.1399V12.5726L77.3622 12.3846H76.339C75.2634 12.3846 74.3433 13.0846 73.5786 14.4847L72.369 14.8294L72.0279 14.2967V13.6056C72.0279 12.4354 72.8342 11.5682 74.4468 11.004C74.5919 10.5233 75.1088 10.2306 75.9975 10.1261H77.2071C77.6831 10.1262 78.1518 10.2446 78.5718 10.4709V9.7814C77.4759 9.55157 76.7936 9.43666 76.525 9.43666C76.1939 9.43666 74.5191 10.0114 71.5004 11.1608C69.7432 11.2861 66.921 12.1639 63.0337 13.794C62.9306 14.0239 62.8791 14.191 62.8791 14.2955H62.8802ZM76.3401 13.0744H77.7048V13.4505H75.9986C76.0193 13.1982 76.1331 13.0729 76.3401 13.0744ZM77.5501 16.9327C78.0049 17.0369 78.2323 17.3295 78.2323 17.8106C78.067 17.8106 77.8913 17.9777 77.7052 18.312L76.868 18.1557C75.8548 18.1557 73.2081 18.7409 68.928 19.9115H68.5556C67.6461 19.347 67.1913 18.9917 67.1913 18.8456V18.5004C67.1913 17.6648 70.6442 17.1423 77.5501 16.9331V16.9327ZM76.8672 18.8428H77.0219C77.7249 18.9054 78.0765 19.083 78.0765 19.3756V19.5319C78.0765 19.8248 76.4637 20.2324 73.2383 20.7545C73.114 20.8799 72.3593 21.2352 70.9741 21.8204C70.2092 21.5276 69.7543 21.12 69.6094 20.5978C72.3388 19.4276 74.7581 18.8424 76.8672 18.8424V18.8428ZM61.8241 19.5327V20.0658C65.3391 22.6779 67.6444 24.4856 68.7401 25.4891H68.9265V24.9544C66.8406 22.7984 64.4472 20.9703 61.8257 19.5308L61.8241 19.5327ZM34.0362 22.3204V22.8535H35.5873C36.9518 22.8535 39.5468 23.6162 43.3722 25.1416C45.8729 26.2285 48.0542 27.8482 49.9161 30.0009L54.0721 35.7689C54.4235 36.605 54.5993 37.0753 54.5996 37.1795H54.7542V36.9915C54.7542 35.1106 52.7383 32.028 48.7065 27.7436C44.9425 24.7762 40.5176 22.9162 35.4318 22.1636C34.7909 22.2678 34.3257 22.32 34.0362 22.32V22.3204ZM61.3295 22.696C61.3316 22.9389 61.2671 23.1777 61.1431 23.3859C63.1695 23.6365 65.5888 25.1517 68.4009 27.9312V27.2101C68.1947 27.2101 67.3263 26.4578 65.7956 24.9532C64.0588 23.8664 62.5701 23.1139 61.3295 22.696ZM34.0362 24.9567V25.6462H34.7496C38.4505 25.6462 41.325 26.3464 43.3733 27.7467H43.528V27.0561C40.838 25.6565 37.6741 24.9567 34.0362 24.9567ZM60.8009 25.142V25.8319C62.538 26.6676 64.8434 28.2349 67.7172 30.534H67.8719V30.1889C65.8868 28.2661 63.5296 26.5838 60.8005 25.142H60.8009ZM69.0819 25.142V25.9886C73.9823 30.5865 77.1459 33.2615 78.5726 34.0135V33.324C76.05 31.3175 72.8864 28.5902 69.0819 25.142ZM34.0362 27.556V28.2791L34.3772 28.0911C37.4996 28.0911 40.5494 28.906 43.5268 30.5359V30.1912C41.6041 28.436 38.4406 27.5582 34.0362 27.5579V27.556ZM44.2399 27.556C44.2399 28.1829 44.8705 28.8309 46.1317 29.4998C49.9571 32.7182 52.3144 35.6236 53.2035 38.2161C54.134 39.4702 54.5992 40.5153 54.5992 41.3512C54.4749 41.7064 54.1234 41.8839 53.5446 41.8839H53.3899C53.2041 41.8839 52.9145 41.1317 52.5214 39.6271C50.7636 36.8043 48.4582 34.0659 45.605 31.4119L45.2636 31.2235H45.0776V31.4119C45.0776 31.5786 46.0597 32.6861 48.0239 34.7342C50.898 38.0363 52.335 40.5338 52.335 42.2267C51.8593 42.5822 51.4044 42.7597 50.9703 42.7595C49.3781 39.2902 47.817 36.845 46.2872 35.4241H46.1325V35.5805C46.1325 35.9776 46.9389 37.2001 48.5518 39.2479C49.4613 41.2124 49.9161 42.3199 49.9161 42.5703V42.915C49.7511 43.3958 49.348 43.6362 48.7069 43.6362L47.498 40.8165H47.3433L48.2115 44.6724C51.5199 43.1675 53.8772 42.4151 55.2833 42.4151L55.0969 44.1392C55.2211 44.8498 55.397 45.2051 55.6244 45.2051H55.9654L56.3065 45.0171C56.3065 44.62 56.1411 44.1602 55.8104 43.6377V43.105C55.8104 42.9794 55.8619 42.9166 55.965 42.9166C55.4275 39.9492 53.4116 36.3442 49.9173 32.1018C47.4776 29.594 45.5857 28.0788 44.2415 27.5564L44.2399 27.556ZM60.2749 27.9316V28.4331C63.149 30.1889 65.3404 31.6413 66.849 32.7905C66.8694 33.0414 66.9831 33.1669 67.1901 33.1669L67.3761 32.7905V32.6341C64.0264 29.959 61.659 28.3917 60.2738 27.932L60.2749 27.9316ZM69.0831 28.088V28.9658C69.4551 29.1331 71.1298 30.5333 74.1072 33.1665C75.8031 34.5457 76.7232 35.2355 76.8676 35.2357V35.5805L75.9994 35.7685H75.6583C75.0381 35.7685 72.8467 34.2011 69.0842 31.0664V31.2227C69.0842 31.8077 69.7768 32.5079 71.162 33.3232C71.8236 34.0338 72.8058 34.8488 74.1088 35.7681V36.1132C73.3021 36.343 72.6611 36.4579 72.1857 36.4579C72.165 36.207 71.1932 35.4546 69.2702 34.2007C69.2702 34.0751 69.2082 34.0124 69.0842 34.0127V34.5454C70.3248 35.7162 71.0795 36.3015 71.3484 36.3012V36.4576C70.8519 37.1682 70.0972 37.5234 69.0842 37.5234V38.5588C72.5786 37.0545 75.7421 36.3023 78.5749 36.302V35.5808L73.7368 31.9458C73.075 31.5695 71.5243 30.2842 69.0846 28.0899L69.0831 28.088ZM59.9335 29.8441V30.3769C59.975 30.5022 61.5257 31.5995 64.5856 33.6687C64.5856 33.7938 65.2784 34.3789 66.6638 35.4241H66.8498V34.891C65.5469 33.4909 63.2414 31.8086 59.9335 29.8441ZM34.0362 30.8783V31.4115H36.7965C39.0706 31.4115 41.3136 32.2787 43.5253 34.0131V33.5116C41.3128 31.6519 38.904 30.7219 36.2988 30.7216H34.9043L34.0362 30.8783ZM59.4064 32.6345V33.512C63.0041 35.3303 65.1337 37.1276 65.7953 38.904H66.1677V37.8694C64.8647 36.3231 62.6109 34.578 59.4064 32.6341V32.6345ZM34.7496 33.668H34.0362V34.3891L34.3772 34.2007H35.2458C38.0786 34.2007 40.8389 35.1307 43.5268 36.9907V36.4579C40.8593 34.4935 38.2747 33.5112 35.7729 33.5112L34.7496 33.668ZM58.9102 35.4268C58.9102 35.4894 58.7965 36.4194 58.5692 38.2168C58.6723 38.4467 58.7238 38.6243 58.7238 38.7496C58.4343 38.7496 58.2069 39.2094 58.0417 40.129H58.2277C58.3308 39.7944 58.6719 39.6272 59.2509 39.6275H59.9335C61.6912 39.6275 63.1902 40.9022 64.4306 43.4517V45.2075C64.0792 46.3149 63.9035 47.0045 63.9035 47.2763V47.8091C63.9445 48.0393 64.0581 48.1542 64.2445 48.1542C64.2445 47.8415 64.5961 45.9293 65.2991 42.4175C64.9268 42.4175 64.2341 41.7173 63.2209 40.317C62.6215 39.7531 61.4743 39.1157 59.7792 38.4049C59.3035 37.9035 59.0657 37.3184 59.0657 36.6495V36.3043H59.2517C61.4021 37.036 63.0148 38.3736 64.0899 40.317C64.3172 40.6932 64.4309 41.0381 64.4309 41.3516H64.5856C65.3918 41.3516 65.7949 40.8918 65.7949 39.9722H65.6402L65.2991 40.1286C62.4251 37.2854 60.2954 35.6547 58.9102 35.2365V35.4245V35.4268ZM34.0362 36.1163V36.6491H34.2222C35.4215 36.6491 36.6828 36.879 38.0061 37.339V37.527C37.6339 38.2164 37.2307 38.624 36.7965 38.7496C35.7624 38.3944 35.08 38.2167 34.7493 38.2164H34.0362V40.6617C34.0362 41.4979 34.2119 41.9577 34.5633 42.0411C35.3491 40.7661 36.1555 40.1287 36.9825 40.129C37.6647 38.6241 38.6985 37.8717 40.084 37.8717C41.6347 37.8717 42.5548 38.5719 42.8443 39.9722C43.1129 39.9722 43.2888 40.2543 43.3718 40.8184H43.5265V39.6271C43.5265 38.0391 41.7999 37.1614 38.3468 36.9938C38.3468 36.6178 37.148 36.3253 34.7504 36.1163H34.0362ZM34.7493 38.7496C35.3077 39.0839 35.7006 39.2511 35.928 39.2511V39.4391C35.8867 39.732 35.4938 40.0246 34.7493 40.317L34.2222 39.6271V39.0943C34.2222 38.8645 34.3979 38.7496 34.7493 38.7496ZM69.0831 43.2637V43.9848C70.1171 43.6297 71.2128 43.0444 72.3701 42.2291C74.0864 41.6441 76.154 41.1739 78.573 40.8184V40.317C75.7608 40.4842 72.8248 41.3516 69.7649 42.919C69.3101 42.919 69.0827 43.0339 69.0827 43.2637H69.0831ZM69.423 41.6963L69.7641 41.8843V41.3516C69.5367 41.393 69.423 41.5079 69.423 41.6963ZM40.27 44.4859C40.4973 44.8625 40.611 45.1551 40.611 45.3638C40.611 45.5517 40.0941 46.3145 39.0603 47.6523C38.8329 48.5091 38.7192 49.3136 38.7192 50.0659V50.7871C38.7192 50.8913 38.6572 50.9434 38.5332 50.9434C39.1948 54.4127 40.0529 56.6276 41.1076 57.5881C42.2654 58.5074 43.0718 58.9672 43.5268 58.9675V58.2776C41.8106 57.6301 40.9525 56.7627 40.9525 55.6756V55.4876C40.9525 55.3623 41.8106 54.4949 43.5268 52.8856V52.1649L40.425 54.7981H40.084L39.4018 51.1302C40.2286 50.1479 41.6035 48.9252 43.5265 47.4624V46.5845C42.0381 45.6235 41.2938 44.6935 41.2936 43.7945L42.1618 43.6381C42.3069 43.6381 42.7618 43.983 43.5265 44.6728V42.4159C41.3555 42.8756 40.27 43.5652 40.27 44.4848V44.4859ZM69.766 45.0195L69.0835 44.6743V45.3642C72.7655 48.1219 75.4121 51.0889 77.0234 54.2654C77.4359 54.6823 77.9011 55.7897 78.4191 57.5877H78.5738V56.3655C78.5738 56.0726 78.4601 55.5501 78.2327 54.7981C78.4601 54.7981 78.5738 54.6831 78.5738 54.453V54.1082C77.7673 54.1082 77.085 53.5754 76.5269 52.5096C76.5269 52.05 77.2092 51.7677 78.5738 51.663V51.287H78.0776L75.9994 51.475C75.193 50.6599 74.7898 50.0225 74.7898 49.5629V49.0301C76.0207 48.6765 77.2941 48.4972 78.5738 48.4974V47.9959C76.7335 47.9959 75.2965 48.2257 74.2627 48.6854C73.6633 48.4556 73.1464 47.9853 72.712 47.2747C72.712 46.4599 73.9216 46.0524 76.3409 46.0521H78.5738V45.5506L77.7056 45.3626H77.5509C75.2763 45.3626 73.436 45.7702 72.0302 46.5853C71.5131 46.3554 71.2235 46.1255 71.1617 45.8954V45.3626C71.9678 44.5478 73.8701 43.9104 76.8684 43.4505C77.8612 43.3249 78.4298 43.2621 78.5742 43.2621V42.7607C75.8862 42.7607 73.0123 43.5131 69.9524 45.0179L69.766 45.0195ZM57.3591 43.7964V44.4863C59.1994 44.8623 60.1195 45.5101 60.1195 46.4297L59.7784 46.586C59.5722 46.586 58.652 46.4711 57.0181 46.2413L56.8317 46.586V46.7741H57.0181C59.5407 46.9413 60.8019 47.2862 60.8016 47.8087V48.6866C60.8016 50.2748 59.4783 51.4343 56.8317 52.1653C56.6043 52.646 56.2632 52.8864 55.8084 52.8864C55.2294 52.0922 54.9399 51.507 54.9399 51.131C54.9399 51.0474 54.9914 50.6921 55.0946 50.0651C55.0946 49.668 54.464 48.9156 53.2028 47.8079C53.2028 47.3691 54.35 47.0242 56.6445 46.7733V46.5853C56.6445 46.3554 56.4791 46.2405 56.1483 46.2405C54.453 46.2405 52.1476 47.1183 49.232 48.8738V49.5633H49.4184C50.4726 48.978 51.3306 48.6855 51.9924 48.6858H53.0469C53.7087 49.0618 54.1636 49.4693 54.4116 49.9084V50.7859C54.0602 51.225 53.8845 51.6325 53.8845 52.0085C54.6907 52.3431 55.0938 52.8656 55.0938 53.5759V53.9198C55.0938 54.0866 54.9284 54.2642 54.5976 54.4526C54.5976 54.7653 54.8768 55.0474 55.4352 55.2988C55.4352 54.2122 57.1618 52.8226 60.6149 51.1299C61.1936 50.3148 61.483 49.2073 61.483 47.8075C60.6562 45.258 59.509 43.9833 58.0413 43.9833C58.0413 43.8577 57.8138 43.7949 57.3588 43.7949L57.3591 43.7964ZM41.6343 45.8969C42.0888 46.3975 42.316 46.8569 42.316 47.2751C42.1505 47.7559 41.9852 47.9962 41.8199 47.9959C41.3855 47.8708 41.034 47.4634 40.7653 46.7737C40.7661 46.4388 41.0559 46.1461 41.6347 45.8954L41.6343 45.8969ZM40.2696 47.4643L40.7661 48.1542V48.6869C40.7661 48.8954 40.3629 49.2403 39.5565 49.7216V48.6869C39.5567 48.0378 39.7946 47.6298 40.27 47.4628L40.2696 47.4643ZM63.748 49.3764V49.7216H63.9027V49.3764H63.748ZM63.562 49.9096C63.562 51.1635 62.125 52.6159 59.2509 54.2669C57.7621 56.2103 57.0178 58.0181 57.0181 59.6902C57.0183 61.3623 58.2795 62.4072 60.8016 62.8249C61.029 62.8249 61.1427 62.7623 61.1427 62.6369C61.1427 62.5327 61.2049 62.3655 61.3291 62.1354C58.9099 62.1354 57.7002 61.2577 57.7002 59.5022C57.7002 56.7435 59.2509 54.5908 62.3524 53.0443C63.2828 52.125 63.748 51.1323 63.748 50.0663V49.91L63.562 49.9096ZM69.0827 51.2889V52.0097C71.1294 54.246 73.0834 57.3808 74.9445 61.4143C75.8749 62.8355 76.3401 64.1208 76.3401 65.2702H77.0227V65.0822C77.0227 63.9539 75.2961 60.4116 71.843 54.4553C70.1474 52.3447 69.2273 51.2893 69.0827 51.2893V51.2889ZM50.1013 52.5112V52.6992C50.6801 54.0367 50.9696 54.904 50.9699 55.3012V55.8343C50.9699 55.9594 50.908 56.0223 50.7839 56.0223C50.9081 56.2102 50.9701 56.5027 50.9699 56.8998C51.3004 56.7747 51.4658 56.4196 51.466 55.8343V54.7997C51.466 53.65 51.0111 52.8872 50.1013 52.5112ZM34.0362 57.2422V57.9321C34.1604 57.9321 34.6256 57.2946 35.4318 56.0196V55.6748C34.7703 56.1564 34.3051 56.6788 34.0362 57.2422ZM39.2158 59.1574C39.2158 59.3873 37.4892 61.3622 34.0362 65.0822V65.2702H34.5633C37.8921 61.9246 39.5566 59.9392 39.5569 59.3138L39.2158 59.1574ZM34.0362 61.2576V61.9474C34.2223 61.9474 34.9149 61.2473 36.114 59.8469V59.3138H35.928C35.804 59.3138 35.1734 59.9616 34.0362 61.2572V61.2576ZM51.9939 61.2576C52.1176 61.4874 52.1796 61.6546 52.1799 61.759C52.3245 61.759 52.6139 61.4143 53.0481 60.7248V60.3797H52.8621C52.7174 60.3786 52.428 60.6707 51.9939 61.256V61.2576ZM41.2936 61.0696C41.2936 61.3822 40.1463 62.7825 37.8519 65.2702H38.7196C40.1891 63.7234 41.2231 62.3859 41.8214 61.2576V61.0696H41.2936ZM40.9525 65.2698H41.8211C42.6481 64.6223 43.2167 63.8596 43.5268 62.9817H43.3722C41.7802 64.3817 40.9738 65.1445 40.9529 65.2698H40.9525ZM52.6761 63.7024V64.3923C53.1517 64.1838 53.3895 63.7763 53.3895 63.1697H53.2035C53.038 63.1697 52.8622 63.3473 52.6761 63.7024ZM55.0953 65.0818V65.2698C56.4599 65.1447 57.442 65.082 58.0417 65.0818H59.4064L60.616 65.2698L60.802 64.549H60.616C60.4301 64.549 59.51 64.4341 57.8557 64.2043C57.3388 64.2043 56.4187 64.4968 55.0953 65.0818Z" fill="#FF759E"/>
<path d="M9.6535 77.4179H12.1629V95.5082H9.6535V85.6975L7.34908 93.3323H4.8138L2.50938 85.6975V95.5082H0V77.4179H2.50938L6.06713 89.1418L9.6535 77.4179ZM23.4808 81.0412V91.9123C23.4808 94.6557 21.2789 96.0015 19.1024 96.0015C16.8982 96.0015 14.7237 94.6557 14.7237 91.9123V81.0423C14.7237 78.3247 16.9001 76.9531 19.1024 76.9531C21.2789 76.9531 23.4808 78.3247 23.4808 81.0423V81.0412ZM20.9714 92.4544V80.6788C20.9714 79.7728 20.024 79.3073 19.1024 79.3073C18.155 79.3073 17.2331 79.7728 17.2331 80.6788V92.4548C17.2331 93.3604 18.155 93.8263 19.1024 93.8263C20.024 93.8275 20.9714 93.3604 20.9714 92.4548V92.4544ZM26.0416 77.4175H34.6707V79.9538H31.5983V95.534H29.1144V79.9542H26.0416V77.4175ZM43.3002 77.4691H45.8096V95.5602H43.3002V86.6833H39.7424V95.5606H37.2331V77.4695H39.7424V84.147H43.3002V77.4695V77.4691ZM56.4098 79.9796H50.8798V84.1466H55.5141V86.6829H50.8798V93.0497H56.4098V95.5602H48.37V77.4695H56.4105V79.98L56.4098 79.9796ZM67.5471 85.7511C67.5471 87.6405 66.4457 88.9863 64.7303 89.297L67.5471 95.534H64.8614L62.096 89.3744H61.4815V95.534H58.9721V77.4175H63.9642C66.1155 77.4175 67.5494 78.8668 67.5494 81.0408V85.7511H67.5471ZM65.0373 85.0522V81.7396C65.0373 80.4197 64.5767 79.9538 63.2449 79.9538H61.4784V86.8381H63.2449C64.5767 86.8381 65.0373 86.3722 65.0373 85.0522ZM72.6169 92.9977H78.1469V95.534H70.1098V77.4437H72.6192L72.6169 92.9977ZM87.5227 95.5344L87.1387 93.3604H83.5809L83.2225 95.5344H80.7131L84.0419 77.4437H86.6793L90.0081 95.5344H87.5227ZM84.0404 90.8241H86.7037L85.3718 83.1894L84.0404 90.8241ZM99.1995 77.4175H101.683V95.534H99.1995L95.076 84.2513V95.5352H92.5666V77.4186H95.076L99.1987 88.7029V77.4186L99.1995 77.4175ZM109.416 77.4691C111.567 77.4691 113.001 78.9184 113.001 81.0924V91.9369C113.001 94.1109 111.567 95.5602 109.416 95.5602H104.243V77.4695L109.416 77.4691ZM110.492 91.238V81.7916C110.492 80.4717 110.031 79.98 108.699 79.98H106.753V93.0501H108.699C110.031 93.0501 110.492 92.5584 110.492 91.2384V91.238Z" fill="#FF759E"/>
</g>
<defs>
<clipPath id="clip0">
<rect width="113" height="96" fill="white"/>
</clipPath>
</defs>
</svg>
