<svg width="99" height="49" viewBox="0 0 99 49" fill="none" xmlns="http://www.w3.org/2000/svg">
<rect x="0.40918" y="0.617188" width="98" height="48" rx="24" fill="black" fill-opacity="0.6"/>
<path d="M19.0762 31.7287V17.5065C19.0762 16.3337 19.0762 15.7467 19.323 15.3997C19.5384 15.0969 19.8704 14.898 20.2389 14.8505C20.6611 14.7961 21.1788 15.0722 22.2129 15.6237L35.5462 22.7348L35.5511 22.7369C36.6938 23.3464 37.2654 23.6513 37.453 24.0576C37.6165 24.4121 37.6165 24.8213 37.453 25.1758C37.2652 25.5827 36.6922 25.8888 35.5462 26.5L22.2129 33.6111C21.1781 34.163 20.6612 34.4381 20.2389 34.3836C19.8704 34.3361 19.5384 34.1373 19.323 33.8344C19.0762 33.4874 19.0762 32.9015 19.0762 31.7287Z" stroke="white" stroke-width="2" stroke-linecap="round" stroke-linejoin="round"/>
<path d="M50.248 30.6172V18.9808H54.1798C55.0927 18.9808 55.8389 19.1456 56.4184 19.4751C57.0017 19.8009 57.4336 20.2422 57.7139 20.799C57.9942 21.3558 58.1343 21.977 58.1343 22.6626C58.1343 23.3482 57.9942 23.9714 57.7139 24.532C57.4374 25.0926 57.0093 25.5395 56.4298 25.8729C55.8502 26.2024 55.1078 26.3672 54.2025 26.3672H51.3843V25.1172H54.157C54.782 25.1172 55.2839 25.0092 55.6627 24.7933C56.0415 24.5774 56.3161 24.2857 56.4866 23.9183C56.6608 23.5471 56.748 23.1286 56.748 22.6626C56.748 22.1967 56.6608 21.7801 56.4866 21.4126C56.3161 21.0452 56.0396 20.7573 55.657 20.549C55.2745 20.3369 54.7669 20.2308 54.1343 20.2308H51.657V30.6172H50.248ZM60.2224 18.9808H61.5633V28.3445C61.5633 28.7687 61.6106 29.0661 61.7053 29.2365C61.8 29.407 61.9951 29.4884 62.2906 29.4808C62.4497 29.4732 62.5671 29.4619 62.6428 29.4467C62.7224 29.4278 62.7944 29.4089 62.8588 29.3899L63.1315 30.549C63.0141 30.5831 62.8663 30.6134 62.6883 30.6399C62.5103 30.6702 62.3247 30.6854 62.1315 30.6854C61.4951 30.6854 61.0178 30.5111 60.6997 30.1626C60.3815 29.8142 60.2224 29.3293 60.2224 28.7081V18.9808ZM67.6585 30.799C66.9312 30.799 66.2892 30.6153 65.7323 30.2479C65.1755 29.8767 64.7399 29.3539 64.4255 28.6797C64.1111 28.0017 63.9539 27.2005 63.9539 26.2763C63.9539 25.3596 64.1111 24.5642 64.4255 23.8899C64.7399 23.2157 65.1774 22.6948 65.738 22.3274C66.2986 21.96 66.9463 21.7763 67.6812 21.7763C68.2494 21.7763 68.6982 21.871 69.0278 22.0604C69.3611 22.246 69.6149 22.4581 69.7892 22.6967C69.9672 22.9316 70.1054 23.1248 70.2039 23.2763H70.3176V21.8899H71.6585V30.6172H70.363V29.2763H70.2039C70.1054 29.4354 69.9653 29.6361 69.7835 29.8786C69.6017 30.1172 69.3422 30.3312 69.0051 30.5206C68.6679 30.7062 68.2191 30.799 67.6585 30.799ZM67.8403 29.5945C68.3782 29.5945 68.8327 29.4543 69.2039 29.174C69.5751 28.8899 69.8573 28.4979 70.0505 27.9979C70.2437 27.4941 70.3403 26.9126 70.3403 26.2536C70.3403 25.602 70.2456 25.032 70.0562 24.5433C69.8668 24.0509 69.5865 23.6683 69.2153 23.3956C68.8441 23.1191 68.3857 22.9808 67.8403 22.9808C67.2721 22.9808 66.7986 23.1267 66.4198 23.4183C66.0448 23.7062 65.7626 24.0982 65.5732 24.5945C65.3876 25.0869 65.2948 25.6399 65.2948 26.2536C65.2948 26.8748 65.3895 27.4392 65.5789 27.9467C65.7721 28.4505 66.0562 28.852 66.4312 29.1513C66.81 29.4467 67.2797 29.5945 67.8403 29.5945ZM75.1642 33.8899C74.9369 33.8899 74.7342 33.871 74.5562 33.8331C74.3782 33.799 74.2551 33.7649 74.1869 33.7308L74.5278 32.549C74.8535 32.6323 75.1414 32.6626 75.3914 32.6399C75.6414 32.6172 75.863 32.5054 76.0562 32.3047C76.2532 32.1077 76.4331 31.7876 76.596 31.3445L76.846 30.6626L73.6187 21.8899H75.0732L77.4823 28.8445H77.5732L79.9823 21.8899H81.4369L77.7323 31.8899C77.5657 32.3407 77.3592 32.7138 77.113 33.0092C76.8668 33.3085 76.5808 33.5301 76.2551 33.674C75.9331 33.8179 75.5695 33.8899 75.1642 33.8899Z" fill="white"/>
</svg>
