<svg width="807" height="850" viewBox="0 0 807 850" fill="none" xmlns="http://www.w3.org/2000/svg">
<path d="M0.772426 340.225L320.707 396.524C320.62 397.615 320.518 398.72 320.43 399.825C318.325 399.993 316.21 399.993 314.105 399.825C294.049 396.538 274.009 393.188 253.983 389.775C223.973 384.612 193.905 379.74 164.012 374.214C138.039 369.472 112.242 363.771 86.2545 359.117C66.2431 355.539 46.0277 353.096 25.958 349.765C17.213 348.311 8.64294 345.926 0 343.948L0.772426 340.225Z" fill="#FFF9F4"/>
<path d="M807 331.745C795.734 337.344 494.645 390.065 486.803 388.189C491.89 383.855 794.67 330.13 807 331.745Z" fill="#FFF9F4"/>
<path d="M664.821 93.3136L456.137 341.33L454.68 340.05C456.254 332.472 653.176 97.5895 662.883 91.5684L664.821 93.3136Z" fill="#FFF9F4"/>
<path d="M52.3823 616.644C60.1216 608.252 324.846 456.239 333.824 455.047L334.903 456.908L53.8398 618.883L52.3823 616.644Z" fill="#FFF9F4"/>
<path d="M270.394 793.817C269.068 783.738 373.745 496.948 381.339 489.574C345.688 591.439 308.707 692.853 270.394 793.817Z" fill="#FFF9F4"/>
<path d="M439.187 485.43C477.402 586.393 514.428 687.759 550.262 789.527C543.208 783.462 438.633 497.647 439.187 485.43Z" fill="#FFF9F4"/>
<path d="M759.864 609.532L478.889 447.615L479.894 445.885C487.473 446.147 753 598.493 761.278 607.321C760.87 608.078 760.331 608.834 759.864 609.532Z" fill="#FFF9F4"/>
<path d="M137.85 98.1719C208.29 180.068 278.119 262.517 346.271 346.232C337.293 342.465 140.196 108.149 137.85 98.1719Z" fill="#FFF9F4"/>
<path d="M399.543 0C400.884 107.886 401.234 215.685 399.733 323.469C395.418 315.659 394.908 12.0278 399.543 0Z" fill="#FFF9F4"/>
<path d="M43.0542 471.729L336.564 419.953L337.439 423.415C331.507 425.087 325.677 427.37 319.643 428.345C299.602 431.574 279.401 433.857 259.419 437.391C227.952 442.961 196.645 449.448 165.207 455.164C150.209 457.883 134.964 459.323 120.024 462.014C102.17 465.214 84.4616 469.286 66.6219 472.631C59.0575 474.085 51.3182 474.536 43.6517 475.452L43.0542 471.729Z" fill="#FFF9F4"/>
<path d="M472.199 415.109L765.899 466.885C759.151 471.438 480.434 423.167 471.835 417.858L472.199 415.109Z" fill="#FFF9F4"/>
<path d="M86.1959 225.182C172.654 274.834 259.215 324.312 345.251 374.678L343.152 378.285C256.47 328.836 169.992 279.042 83.7183 228.905C84.5928 227.683 85.3652 226.432 86.1959 225.182Z" fill="#FFF9F4"/>
<path d="M641.735 686.949C634.185 682.964 454.694 470.101 449.958 459.527C456.822 461.782 638.528 677.263 641.735 686.949Z" fill="#FFF9F4"/>
<path d="M276.079 64.0215C283.526 74.2749 378.395 335.613 378.293 344.557C372.506 338.435 276.458 75.7729 276.079 64.0215Z" fill="#FFF9F4"/>
<path d="M169.652 689.131C232.47 612.267 296.032 536.101 361.109 461.215C359.593 469.752 179.811 684.274 169.652 689.131Z" fill="#FFF9F4"/>
<path d="M720.615 223.19C713.327 231.349 470.567 370.737 461.938 371.712C461.574 371.086 461.224 370.461 460.86 369.85L719.259 220.936L720.615 223.19Z" fill="#FFF9F4"/>
<path d="M424.189 342.784C456.905 249.112 490.85 155.915 526.024 63.1934C527.467 72.4869 432.205 334.32 424.189 342.784Z" fill="#FFF9F4"/>
<path d="M407.909 774.051C403.114 767.129 402.866 485.429 407.676 476.383C409.133 575.601 409.002 674.833 407.909 774.051Z" fill="#FFF9F4"/>
<path d="M3.04639 410.586H130.912C124.223 415.429 10.1152 415.865 3.04639 410.586Z" fill="#FFF9F4"/>
<path d="M608.183 752.6C602.353 749.502 545.322 651.622 544.812 643.725C550.321 646.313 607.834 745.197 608.183 752.6Z" fill="#FFF9F4"/>
<path d="M781.071 543.299L662.81 500.278C669.208 496.671 776.903 535.329 781.931 540.884C781.654 541.684 781.363 542.499 781.071 543.299Z" fill="#FFF9F4"/>
<path d="M99.4595 668.145C102.17 661.396 188.979 588.91 196.164 587.383C193.905 593.971 106.004 667.33 99.4595 668.145Z" fill="#FFF9F4"/>
<path d="M338.43 803.11C336.069 797.205 355.25 686.017 359.87 678.789C362.726 683.923 343.24 796.943 338.43 803.11Z" fill="#FFF9F4"/>
<path d="M95.1597 153.117C128.318 178.932 160.383 206.115 191.966 233.952C185.058 234.388 96.5734 160.622 95.1597 153.117Z" fill="#FFF9F4"/>
<path d="M780.022 269.6C740.67 284.245 701.317 298.76 661.601 312.49L660.143 308.65C699.393 293.757 738.848 279.562 778.462 265.557L780.022 269.6Z" fill="#FFF9F4"/>
<path d="M603.096 60.8662L540.002 169.756C537.466 163.357 593.768 64.4877 600.677 59.5137L603.096 60.8662Z" fill="#FFF9F4"/>
<path d="M331.58 14.6895C340.441 55.6449 347.495 96.9058 353.573 138.312C348.137 133.949 328.111 21.4523 331.58 14.6895Z" fill="#FFF9F4"/>
<path d="M565.1 271.941C563.322 277.992 483.364 345.446 475.479 347.569C476.936 341.766 557.9 273.469 565.1 271.941Z" fill="#FFF9F4"/>
<path d="M315.256 379.232L204.69 339.018C211.06 335.44 310.65 371.014 316.203 376.657L315.256 379.232Z" fill="#FFF9F4"/>
<path d="M316.99 443.049L206.862 483.146C206.381 482.128 205.885 481.11 205.404 480.107C208.101 478.492 210.622 476.413 213.523 475.351C244.616 463.978 275.792 452.711 307.05 441.551C309.984 440.715 312.975 440.093 315.999 439.689C316.334 440.824 316.669 441.929 316.99 443.049Z" fill="#FFF9F4"/>
<path d="M564.619 544.565L474.983 469.417C481.95 468.064 563.293 535.446 566.441 542.601L564.619 544.565Z" fill="#FFF9F4"/>
<path d="M442.218 201.053C435.417 239.478 428.615 277.898 421.813 316.313C417.178 310.495 435.295 206.1 439.77 200.559L442.218 201.053Z" fill="#FFF9F4"/>
<path d="M442.656 614.985C437.074 610.229 418.753 506.881 422.251 499.842C430.617 537.932 437.059 576.371 442.656 614.985Z" fill="#FFF9F4"/>
<path d="M359.535 490.679C340.733 524.828 320.736 558.294 301.235 592.079L297.504 589.941C316.145 555.705 336.244 522.298 355.804 488.6L359.535 490.679Z" fill="#FFF9F4"/>
<path d="M296.848 226.781C304.135 229.588 356.605 320.705 355.147 328.108C334.845 294.861 315.008 261.294 296.848 226.781Z" fill="#FFF9F4"/>
<path d="M445.556 156.303C451.668 119.555 458.115 82.8516 464.897 46.1914L467.929 46.3223C468.104 49.1147 468.847 52.0089 468.381 54.685C462.852 86.2742 457.206 117.839 451.444 149.38C450.714 152.01 449.738 154.567 448.529 157.015L445.556 156.303Z" fill="#FFF9F4"/>
<path d="M685.751 643.857C655.931 621.459 627.452 597.433 599.657 572.505C605.604 571.879 682.661 635.203 685.751 643.857Z" fill="#FFF9F4"/>
<path d="M164.755 498.402L59.6406 536.58C62.1767 529.803 155.413 495.246 163.881 495.712L164.755 498.402Z" fill="#FFF9F4"/>
<path d="M278.804 630.622C260.381 662.982 241.9 695.342 222.821 727.338L219.178 725.244C237.309 692.704 255.975 660.466 275.175 628.527L278.804 630.622Z" fill="#FFF9F4"/>
<path d="M162.38 323.688L57.6294 285.671L58.431 282.369C61.4744 282.64 64.4883 283.175 67.4383 283.969C96.9769 294.634 126.477 305.387 155.937 316.227C158.645 317.448 161.261 318.863 163.764 320.459L162.38 323.688Z" fill="#FFF9F4"/>
<path d="M273.761 188.662C254.61 156.665 235.915 124.349 217.677 91.7126L221.306 89.6328C240.253 121.804 259.317 153.902 277.201 186.684L273.761 188.662Z" fill="#FFF9F4"/>
<path d="M466.34 769.66C459.927 733.097 453.499 696.519 446.766 658.123C453.179 662.864 471.368 762.242 468.876 769.282L466.34 769.66Z" fill="#FFF9F4"/>
<path d="M686.815 173.391L601.042 245.078C601.187 237.675 678.289 172.751 685.212 171.428L686.815 173.391Z" fill="#FFF9F4"/>
<path d="M497.399 405.92C536.703 404.756 576.012 404.756 615.325 405.92C609.728 410.893 503.229 411.112 497.399 405.92Z" fill="#FFF9F4"/>
<path d="M771.641 408.711H658.686C664.501 404.115 765.243 403.621 771.641 408.711Z" fill="#FFF9F4"/>
<path d="M229.482 414.31C202.46 415.211 175.438 414.484 148.417 414.208V410.179C175.453 409.205 202.504 408.725 229.555 410.179L229.482 414.31Z" fill="#FFF9F4"/>
<path d="M210.272 575.455C213.042 568.591 266.896 523.912 272.945 523.098C271.531 528.479 217.414 574.19 210.272 575.455Z" fill="#FFF9F4"/>
<path d="M533.355 628.192L492.545 557.757C498.725 557.524 535.673 619.233 535.571 626.971L533.355 628.192Z" fill="#FFF9F4"/>
<path d="M204.107 248.845C211.861 247.507 266.08 292.928 266.328 300.912L204.107 248.845Z" fill="#FFF9F4"/>
<path d="M368.804 237.444C362.504 211.184 357.701 184.589 354.419 157.787C359.957 161.438 372.375 230.288 368.804 237.444Z" fill="#FFF9F4"/>
<path d="M644.854 493.763L568.889 466.129C574.486 462.45 640.875 485.807 645.714 491.014L644.854 493.763Z" fill="#FFF9F4"/>
<path d="M527.438 184.619C528.895 191.527 493.551 252.568 486.847 254.662C499.055 230.576 512.607 207.192 527.438 184.619Z" fill="#FFF9F4"/>
<path d="M361.342 659.505C366.054 632.909 370.772 606.309 375.494 579.703C380.202 584.808 368.207 655.215 363.834 659.971L361.342 659.505Z" fill="#FFF9F4"/>
<path d="M643.279 318.073C618.502 329.039 593.025 337.78 565.945 347.161C569.326 340.296 636.575 315.499 643.279 318.073Z" fill="#FFF9F4"/>
<path d="M306.467 413.262C303.654 413.888 300.841 415.022 298.014 415.037C284.547 415.124 271.079 415.037 257.612 414.659C255.455 414.659 253.342 412.913 251.199 411.983C253.444 411.183 255.659 409.757 257.918 409.714C271.463 409.423 285.013 409.331 298.568 409.437C301.227 409.668 303.858 410.155 306.424 410.892L306.467 413.262Z" fill="#FFF9F4"/>
<path d="M374.838 258.531C379.309 276.64 382.793 294.978 385.274 313.463C379.167 309.609 370.743 263.971 374.838 258.531Z" fill="#FFF9F4"/>
<path d="M493.726 368.991L545.176 350.084C543.572 356.483 500.328 372.86 494.703 371.391C494.382 370.605 494.047 369.805 493.726 368.991Z" fill="#FFF9F4"/>
<path d="M391.352 505.181C393.684 510.838 385.304 555.459 379.27 558.266C382.437 540.396 385.595 522.532 388.743 504.672L391.352 505.181Z" fill="#FFF9F4"/>
<path d="M286.121 311.588L329.234 347.657C322.092 348.631 286.966 320.285 284.328 313.828L286.121 311.588Z" fill="#FFF9F4"/>
<path d="M497.385 437.915C502.457 436.199 545.351 451.499 548.805 456.24C543.704 458.145 501.203 443.02 497.385 437.915Z" fill="#FFF9F4"/>
<path d="M477.956 274.85C470.188 291.342 460.743 306.846 450.628 323.95C448.456 316.663 471.354 276.479 477.956 274.85Z" fill="#FFF9F4"/>
<path d="M482.635 538.588C472.855 523.186 462.9 507.944 455.598 491.219C461.851 493.066 484.573 532.523 482.635 538.588Z" fill="#FFF9F4"/>
<path d="M289.983 509.18C290.595 503.944 325.181 474.566 331.507 473.896C330.574 479.045 295.929 508.496 289.983 509.18Z" fill="#FFF9F4"/>
<path d="M487.838 845.739C487.211 847.193 486.584 848.648 485.943 850L483.451 845.725L487.838 845.739Z" fill="white"/>
</svg>
