<svg width="111" height="19" viewBox="0 0 111 19" fill="none" xmlns="http://www.w3.org/2000/svg">
<g clip-path="url(#clip0)">
<path d="M8.58711 0.426634L10.0479 4.92155C10.089 5.04572 10.1682 5.15381 10.2744 5.23047C10.3806 5.30713 10.5083 5.34846 10.6394 5.34858H15.371C15.503 5.34773 15.6318 5.38877 15.7387 5.46577C15.8457 5.54277 15.9254 5.65171 15.9662 5.77686C16.0069 5.902 16.0067 6.03686 15.9656 6.16188C15.9244 6.2869 15.8444 6.39563 15.7372 6.47231L11.9068 9.24603C11.8012 9.32341 11.7226 9.43195 11.6822 9.5563C11.6417 9.68064 11.6415 9.8145 11.6815 9.93899L13.1442 14.4339C13.1853 14.5582 13.1859 14.6924 13.1457 14.817C13.1055 14.9416 13.0267 15.0503 12.9206 15.1274C12.8145 15.2045 12.6866 15.246 12.5554 15.2459C12.4241 15.2458 12.2963 15.2041 12.1903 15.1269L8.35992 12.3513C8.25404 12.2745 8.12649 12.2332 7.99562 12.2332C7.86474 12.2332 7.73724 12.2745 7.63136 12.3513L3.80285 15.1269C3.69666 15.2035 3.56889 15.2447 3.43782 15.2446C3.30674 15.2445 3.17904 15.203 3.07301 15.1261C2.96699 15.0493 2.88805 14.9409 2.84747 14.8166C2.8069 14.6923 2.80677 14.5583 2.84711 14.4339L4.30981 9.93899C4.35009 9.81452 4.34998 9.68057 4.30953 9.55616C4.26908 9.43175 4.19035 9.32323 4.0845 9.24603L0.255937 6.47231C0.148854 6.39572 0.0689406 6.28718 0.02774 6.16234C-0.0134605 6.0375 -0.0138057 5.90282 0.0267315 5.77777C0.0672687 5.65272 0.146603 5.54374 0.253278 5.46659C0.359954 5.38944 0.488474 5.34813 0.620237 5.34858H5.35379C5.48469 5.34864 5.61222 5.30734 5.71814 5.23063C5.82406 5.15392 5.9029 5.04572 5.94336 4.92155L7.40605 0.426634C7.44688 0.302538 7.52596 0.19447 7.63201 0.117855C7.73805 0.0412412 7.86564 0 7.99658 0C8.12752 0 8.25511 0.0412412 8.36115 0.117855C8.4672 0.19447 8.54628 0.302538 8.58711 0.426634V0.426634Z" fill="#FFCE5B"/>
</g>
<g clip-path="url(#clip1)">
<path d="M31.5871 0.426634L33.0479 4.92155C33.089 5.04572 33.1682 5.15381 33.2744 5.23047C33.3806 5.30713 33.5083 5.34846 33.6394 5.34858H38.371C38.503 5.34773 38.6318 5.38877 38.7387 5.46577C38.8457 5.54277 38.9254 5.65171 38.9662 5.77686C39.0069 5.902 39.0067 6.03686 38.9656 6.16188C38.9244 6.2869 38.8444 6.39563 38.7372 6.47231L34.9068 9.24603C34.8012 9.32341 34.7226 9.43195 34.6822 9.5563C34.6417 9.68064 34.6415 9.8145 34.6815 9.93899L36.1442 14.4339C36.1853 14.5582 36.1859 14.6924 36.1457 14.817C36.1055 14.9416 36.0267 15.0503 35.9206 15.1274C35.8145 15.2045 35.6866 15.246 35.5554 15.2459C35.4241 15.2458 35.2963 15.2041 35.1903 15.1269L31.3599 12.3513C31.254 12.2745 31.1265 12.2332 30.9956 12.2332C30.8647 12.2332 30.7372 12.2745 30.6314 12.3513L26.8028 15.1269C26.6967 15.2035 26.5689 15.2447 26.4378 15.2446C26.3067 15.2445 26.179 15.203 26.073 15.1261C25.967 15.0493 25.888 14.9409 25.8475 14.8166C25.8069 14.6923 25.8068 14.5583 25.8471 14.4339L27.3098 9.93899C27.3501 9.81452 27.35 9.68057 27.3095 9.55616C27.2691 9.43175 27.1903 9.32323 27.0845 9.24603L23.2559 6.47231C23.1489 6.39572 23.0689 6.28718 23.0277 6.16234C22.9865 6.0375 22.9862 5.90282 23.0267 5.77777C23.0673 5.65272 23.1466 5.54374 23.2533 5.46659C23.36 5.38944 23.4885 5.34813 23.6202 5.34858H28.3538C28.4847 5.34864 28.6122 5.30734 28.7181 5.23063C28.8241 5.15392 28.9029 5.04572 28.9434 4.92155L30.4061 0.426634C30.4469 0.302538 30.526 0.19447 30.632 0.117855C30.738 0.0412412 30.8656 0 30.9966 0C31.1275 0 31.2551 0.0412412 31.3612 0.117855C31.4672 0.19447 31.5463 0.302538 31.5871 0.426634V0.426634Z" fill="#FFCE5B"/>
</g>
<g clip-path="url(#clip2)">
<path d="M54.5871 0.426634L56.0479 4.92155C56.089 5.04572 56.1682 5.15381 56.2744 5.23047C56.3806 5.30713 56.5083 5.34846 56.6394 5.34858H61.371C61.503 5.34773 61.6318 5.38877 61.7387 5.46577C61.8457 5.54277 61.9254 5.65171 61.9662 5.77686C62.0069 5.902 62.0067 6.03686 61.9656 6.16188C61.9244 6.2869 61.8444 6.39563 61.7372 6.47231L57.9068 9.24603C57.8012 9.32341 57.7226 9.43195 57.6822 9.5563C57.6417 9.68064 57.6415 9.8145 57.6815 9.93899L59.1442 14.4339C59.1853 14.5582 59.1859 14.6924 59.1457 14.817C59.1055 14.9416 59.0267 15.0503 58.9206 15.1274C58.8145 15.2045 58.6866 15.246 58.5554 15.2459C58.4241 15.2458 58.2963 15.2041 58.1903 15.1269L54.3599 12.3513C54.254 12.2745 54.1265 12.2332 53.9956 12.2332C53.8647 12.2332 53.7372 12.2745 53.6314 12.3513L49.8028 15.1269C49.6967 15.2035 49.5689 15.2447 49.4378 15.2446C49.3067 15.2445 49.179 15.203 49.073 15.1261C48.967 15.0493 48.888 14.9409 48.8475 14.8166C48.8069 14.6923 48.8068 14.5583 48.8471 14.4339L50.3098 9.93899C50.3501 9.81452 50.35 9.68057 50.3095 9.55616C50.2691 9.43175 50.1903 9.32323 50.0845 9.24603L46.2559 6.47231C46.1489 6.39572 46.0689 6.28718 46.0277 6.16234C45.9865 6.0375 45.9862 5.90282 46.0267 5.77777C46.0673 5.65272 46.1466 5.54374 46.2533 5.46659C46.36 5.38944 46.4885 5.34813 46.6202 5.34858H51.3538C51.4847 5.34864 51.6122 5.30734 51.7181 5.23063C51.8241 5.15392 51.9029 5.04572 51.9434 4.92155L53.4061 0.426634C53.4469 0.302538 53.526 0.19447 53.632 0.117855C53.738 0.0412412 53.8656 0 53.9966 0C54.1275 0 54.2551 0.0412412 54.3612 0.117855C54.4672 0.19447 54.5463 0.302538 54.5871 0.426634V0.426634Z" fill="#FFCE5B"/>
</g>
<g clip-path="url(#clip3)">
<path d="M77.5871 0.426634L79.0479 4.92155C79.089 5.04572 79.1682 5.15381 79.2744 5.23047C79.3806 5.30713 79.5083 5.34846 79.6394 5.34858H84.371C84.503 5.34773 84.6318 5.38877 84.7387 5.46577C84.8457 5.54277 84.9254 5.65171 84.9662 5.77686C85.0069 5.902 85.0067 6.03686 84.9656 6.16188C84.9244 6.2869 84.8444 6.39563 84.7372 6.47231L80.9068 9.24603C80.8012 9.32341 80.7226 9.43195 80.6822 9.5563C80.6417 9.68064 80.6415 9.8145 80.6815 9.93899L82.1442 14.4339C82.1853 14.5582 82.1859 14.6924 82.1457 14.817C82.1055 14.9416 82.0267 15.0503 81.9206 15.1274C81.8145 15.2045 81.6866 15.246 81.5554 15.2459C81.4241 15.2458 81.2963 15.2041 81.1903 15.1269L77.3599 12.3513C77.254 12.2745 77.1265 12.2332 76.9956 12.2332C76.8647 12.2332 76.7372 12.2745 76.6314 12.3513L72.8028 15.1269C72.6967 15.2035 72.5689 15.2447 72.4378 15.2446C72.3067 15.2445 72.179 15.203 72.073 15.1261C71.967 15.0493 71.888 14.9409 71.8475 14.8166C71.8069 14.6923 71.8068 14.5583 71.8471 14.4339L73.3098 9.93899C73.3501 9.81452 73.35 9.68057 73.3095 9.55616C73.2691 9.43175 73.1903 9.32323 73.0845 9.24603L69.2559 6.47231C69.1489 6.39572 69.0689 6.28718 69.0277 6.16234C68.9865 6.0375 68.9862 5.90282 69.0267 5.77777C69.0673 5.65272 69.1466 5.54374 69.2533 5.46659C69.36 5.38944 69.4885 5.34813 69.6202 5.34858H74.3538C74.4847 5.34864 74.6122 5.30734 74.7181 5.23063C74.8241 5.15392 74.9029 5.04572 74.9434 4.92155L76.4061 0.426634C76.4469 0.302538 76.526 0.19447 76.632 0.117855C76.738 0.0412412 76.8656 0 76.9966 0C77.1275 0 77.2551 0.0412412 77.3612 0.117855C77.4672 0.19447 77.5463 0.302538 77.5871 0.426634V0.426634Z" fill="#FFCE5B"/>
</g>
<g clip-path="url(#clip4)">
<path d="M100.587 0.426634L102.048 4.92155C102.089 5.04572 102.168 5.15381 102.274 5.23047C102.381 5.30713 102.508 5.34846 102.639 5.34858H107.371C107.503 5.34773 107.632 5.38877 107.739 5.46577C107.846 5.54277 107.925 5.65171 107.966 5.77686C108.007 5.902 108.007 6.03686 107.966 6.16188C107.924 6.2869 107.844 6.39563 107.737 6.47231L103.907 9.24603C103.801 9.32341 103.723 9.43195 103.682 9.5563C103.642 9.68064 103.641 9.8145 103.681 9.93899L105.144 14.4339C105.185 14.5582 105.186 14.6924 105.146 14.817C105.106 14.9416 105.027 15.0503 104.921 15.1274C104.815 15.2045 104.687 15.246 104.555 15.2459C104.424 15.2458 104.296 15.2041 104.19 15.1269L100.36 12.3513C100.254 12.2745 100.126 12.2332 99.9956 12.2332C99.8647 12.2332 99.7372 12.2745 99.6314 12.3513L95.8028 15.1269C95.6967 15.2035 95.5689 15.2447 95.4378 15.2446C95.3067 15.2445 95.179 15.203 95.073 15.1261C94.967 15.0493 94.888 14.9409 94.8475 14.8166C94.8069 14.6923 94.8068 14.5583 94.8471 14.4339L96.3098 9.93899C96.3501 9.81452 96.35 9.68057 96.3095 9.55616C96.2691 9.43175 96.1903 9.32323 96.0845 9.24603L92.2559 6.47231C92.1489 6.39572 92.0689 6.28718 92.0277 6.16234C91.9865 6.0375 91.9862 5.90282 92.0267 5.77777C92.0673 5.65272 92.1466 5.54374 92.2533 5.46659C92.36 5.38944 92.4885 5.34813 92.6202 5.34858H97.3538C97.4847 5.34864 97.6122 5.30734 97.7181 5.23063C97.8241 5.15392 97.9029 5.04572 97.9434 4.92155L99.4061 0.426634C99.4469 0.302538 99.526 0.19447 99.632 0.117855C99.738 0.0412412 99.8656 0 99.9966 0C100.128 0 100.255 0.0412412 100.361 0.117855C100.467 0.19447 100.546 0.302538 100.587 0.426634V0.426634Z" fill="#FFCE5B"/>
</g>
<defs>
<clipPath id="clip0">
<rect width="19" height="18.0952" fill="white"/>
</clipPath>
<clipPath id="clip1">
<rect width="19" height="18.0952" fill="white" transform="translate(23)"/>
</clipPath>
<clipPath id="clip2">
<rect width="19" height="18.0952" fill="white" transform="translate(46)"/>
</clipPath>
<clipPath id="clip3">
<rect width="19" height="18.0952" fill="white" transform="translate(69)"/>
</clipPath>
<clipPath id="clip4">
<rect width="19" height="18.0952" fill="white" transform="translate(92)"/>
</clipPath>
</defs>
</svg>
